0
SECTION
2
HEADER
9
$INSUNITS
70
4
9
$ACADVER
1
AC1014
9
$HANDSEED
5
FFFF
0
ENDSEC
0
SECTION
2
TABLES
0
TABLE
2
VPORT
5
8
100
AcDbSymbolTable
0
ENDTAB
0
TABLE
2
LTYPE
5
5
100
AcDbSymbolTable
0
LTYPE
5
14
100
AcDbSymbolTableRecord
100
AcDbLinetypeTableRecord
2
BYBLOCK
70
0
0
LTYPE
5
15
100
AcDbSymbolTableRecord
100
AcDbLinetypeTableRecord
2
BYLAYER
70
0
0
ENDTAB
0
TABLE
2
LAYER
5
2
100
AcDbSymbolTable
70
2
0
LAYER
5
50
100
AcDbSymbolTableRecord
100
AcDbLayerTableRecord
2
0
70
0
6
CONTINUOUS
0
ENDTAB
0
TABLE
2
STYLE
5
3
100
AcDbSymbolTable
70
1
0
STYLE
5
11
100
AcDbSymbolTableRecord
100
AcDbTextStyleTableRecord
2
STANDARD
70
0
0
ENDTAB
0
TABLE
2
VIEW
5
6
100
AcDbSymbolTable
70
0
0
ENDTAB
0
TABLE
2
UCS
5
7
100
AcDbSymbolTable
70
0
0
ENDTAB
0
TABLE
2
APPID
5
9
100
AcDbSymbolTable
70
2
0
APPID
5
12
100
AcDbSymbolTableRecord
100
AcDbRegAppTableRecord
2
ACAD
70
0
0
ENDTAB
0
TABLE
2
DIMSTYLE
5
A
100
AcDbSymbolTable
70
1
0
ENDTAB
0
TABLE
2
BLOCK_RECORD
5
1
100
AcDbSymbolTable
70
1
0
BLOCK_RECORD
5
1F
100
AcDbSymbolTableRecord
100
AcDbBlockTableRecord
2
*MODEL_SPACE
0
BLOCK_RECORD
5
1B
100
AcDbSymbolTableRecord
100
AcDbBlockTableRecord
2
*PAPER_SPACE
0
ENDTAB
0
ENDSEC
0
SECTION
2
BLOCKS
0
BLOCK
5
20
100
AcDbEntity
100
AcDbBlockBegin
2
*MODEL_SPACE
0
ENDBLK
5
21
100
AcDbEntity
100
AcDbBlockEnd
0
BLOCK
5
1C
100
AcDbEntity
100
AcDbBlockBegin
2
*PAPER_SPACE
0
ENDBLK
5
1D
100
AcDbEntity
100
AcDbBlockEnd
0
ENDSEC
0
SECTION
2
ENTITIES
0
LWPOLYLINE
5
100
100
AcDbEntity
8
0
100
AcDbPolyline
90
285
70
1
43
0.0
10
0.67433697556116701
20
-0.73715217584717663
42
0.10084039511190986
10
-0.52356654211507581
20
-0.73715017283563
10
-6.6222771646350012
20
-1.9797683550309999
42
0.27817927792625557
10
-7.0023511529468845
20
-2.3293544389580343
42
-0.27817927792657327
10
-7.7624991295699486
20
-3.0285266068122545
10
-11.568333031126981
20
-3.8039689416270983
42
-0.27817927792603214
10
-12.541439885453048
20
-3.4579491203300385
42
0.27817927792608593
10
-13.027993312616108
20
-3.2849392096814709
10
-16.871833031207004
20
-4.068125266441001
42
0.41421356237596307
10
-16.949854885405795
20
-4.186076910208163
10
-16.915651469684036
20
-4.3539456391370832
42
-1.0000000074505806
10
-18.385452702207218
20
-4.653419071804044
10
-18.593373267291
20
-3.6329548800790001
42
0.051026790831082934
10
-18.696626997188336
20
-3.3026356744617158
42
1.0000024629017372
10
-19.294061438573468
20
-3.5587061496182013
42
-1.2279652301485795
10
-21.309143491375554
20
-3.9692810650900014
42
1.0000024628453892
10
-21.959140699601313
20
-3.9673759935580022
42
0.051026790854995924
10
-21.924922732709497
20
-4.3117613027551007
10
-21.71700216762007
20
-5.3322254945080143
42
-0.99999999999999989
10
-23.186803402363935
20
-5.6316989162759867
10
-23.221006820315001
20
-5.4638301764220012
42
0.41421356236963658
10
-23.338958464081966
20
-5.3858083222251647
10
-28.711299021399004
20
-6.480427901783
42
0.41421356237249535
10
-28.789320875596832
20
-6.5983795455499656
10
-28.759373533420629
20
-6.7453596690239115
42
-0.99999999999999989
10
-30.220068764271382
20
-7.0864893255620887
10
-30.36101683739
20
-6.451053623191001
42
0.41162682656283156
10
-30.479435155685902
20
-6.3748938606854821
10
-31.116091959314879
20
-6.5102194146575654
42
-0.93471173027329468
10
-31.469878028407141
20
-5.2623593248796023
42
0.37540578366962257
10
-31.405763421897458
20
-5.1474177468218834
10
-31.407167338965003
20
-5.1408128360880001
42
0.4142135623730957
10
-31.525773267578117
20
-5.0637892442624537
10
-64.098088420709004
20
-11.987248319399002
42
0.41421356237250501
10
-64.175112012534598
20
-12.105854248011916
10
-64.173719679841
20
-12.112404658551002
42
0.3755647646222196
10
-64.06834154583899
20
-12.191327056822356
42
-0.93527289795603719
10
-63.884036636217076
20
-13.475261099635663
10
-64.519871698927005
20
-13.610412014357001
42
0.41409639749950378
10
-64.596903599441958
20
-13.72897881179199
10
-64.462007056556118
20
-14.364867889736992
42
-0.99999387898246583
10
-65.935172322109125
20
-14.647328683979024
10
-65.966359076361002
20
-14.500606543997002
42
0.41421356235814694
10
-66.084965005840118
20
-14.423582953511477
10
-94.435535139173993
20
-20.449682787633993
42
-0.052407780342252998
10
-94.747402681599993
20
-20.482461387851
10
-107.56848121218
20
-20.482461387851
42
0.41421356237309503
10
-107.66848121218001
20
-20.582461387851005
10
-107.66848121218001
20
-20.731182669386001
42
-0.99999999999999989
10
-109.16848121217998
20
-20.731182669386001
10
-109.16848121218001
20
-19.776896672559001
42
0.0567815969094786
10
-109.22407116350563
20
-19.396058480791837
10
-109.22407116351002
20
-19.401611553215005
42
0.99999999999999989
10
-109.83706751058654
20
-19.617795452879307
10
-109.83939578893558
20
-19.617795452876091
42
-1.2279661978500898
10
-111.89587970349292
20
-19.617795486185067
42
1.000002466156473
10
-112.53241065160877
20
-19.48615747586684
42
0.051026907929038384
10
-112.56763774277002
20
-19.830441836279999
10
-112.56763774277003
20
-20.276028295646999
42
-0.16697158398422374
10
-112.67318834318716
20
-20.583289863645224
42
0.13428352523253007
10
-112.77465865489766
20
-20.826804745797016
42
-0.93724578689293425
10
-114.26853905756113
20
-20.732446353076
10
-114.26853905756002
20
-20.082446353076001
42
0.41421356237309503
10
-114.36853905756001
20
-19.982446353076003
10
-115.01853905756001
20
-19.982446353076003
42
-0.93527405197650182
10
-115.10520573953002
20
-18.688250042751029
42
0.37556529404853661
10
-115.01853907522002
20
-18.589142918086001
10
-115.01853907522002
20
-18.582446353076001
42
0.41421356237309503
10
-115.11853907522001
20
-18.482446353076003
10
-148.41853902379
20
-18.482446353076
42
0.41421356237309503
10
-148.51853902379
20
-18.582446353076001
10
-148.51853902379
20
-18.589652346112999
42
0.3741088299609171
10
-148.43237843707004
20
-18.688690069431267
42
-0.93015618641305153
10
-148.51853902261001
20
-19.982424188916852
10
-149.16853902260999
20
-19.982424188917001
42
0.41421356237309503
10
-149.26853902260999
20
-20.082424188917003
10
-149.26853902261391
20
-20.732424188917101
42
-1.0270487711748844
10
-150.76800493732611
20
-20.732424188917101
10
-150.76800493733001
20
-20.582461387851005
42
0.41421356237309503
10
-150.86800493733
20
-20.482461387851004
10
-163.323532
20
-20.482461387855004
42
0.4142139051856118
10
-169.32353902260999
20
-26.482461387851004
10
-169.32353902260999
20
-113.9332815338
42
0.40270455520837967
10
-166.44186925441011
20
-116.93094747093309
42
-0.40270365676961806
10
-165.72145399999999
20
-117.68036373899001
10
-165.72145399999999
20
-118.62918759121001
42
0.05102694391713166
10
-165.68622669845149
20
-118.97347215736231
42
1.00000197586727
10
-165.04969620988265
20
-118.84183273650061
42
-1.2279647118978518
10
-162.99321179134739
20
-118.84183274244847
42
1.0000002062075424
10
-162.35668147562006
20
-118.97347299905792
42
0.051027070644339777
10
-162.32145400000002
20
-118.62918759121001
10
-162.32145399999001
20
-117.68036373899001
42
-0.99999999999999989
10
-160.82145399999004
20
-117.68036373899001
10
-160.82145399999004
20
-117.83037121981002
42
0.41421356237309503
10
-160.72145399998999
20
-117.93037121981001
10
-150.86853902255001
20
-117.93037121981001
42
0.41421356237309503
10
-150.76853902255002
20
-117.83037121981002
10
-150.76853902255269
20
-117.68037121980572
42
-1.0000099755202376
10
-149.26853902262732
20
-117.68037122138
10
-149.26853902262999
20
-118.33037122138002
42
0.41421356237309503
10
-149.16853902263
20
-118.43037122138001
10
-148.51853758207
20
-118.43037122138001
42
-0.93527497143101168
10
-148.43187216386943
20
-119.72456770172442
42
0.37556585367993683
10
-148.51853902261001
20
-119.82367485254001
10
-148.51853902261001
20
-119.83037121981
42
0.41421356237309503
10
-148.41853902260999
20
-119.93037121981001
10
-115.11853902261001
20
-119.93037121981001
42
0.41421356237309503
10
-115.01853902261001
20
-119.83037121981
10
-115.01853902261001
20
-119.82367465717002
42
0.37556530081208911
10
-115.10520568927062
20
-119.72456753219463
42
-0.93527406311484385
10
-115.01853902261001
20
-118.43037121981001
10
-114.36853902256001
20
-118.43037121981
42
0.41421356237309503
10
-114.26853902256001
20
-118.33037121981
10
-114.26853902255738
20
-117.68037121981655
42
-1.0000118463011929
10
-112.76853902266262
20
-117.68037121981001
10
-112.76853902267
20
-117.83037121981002
42
0.41421356237309503
10
-112.66853902267002
20
-117.93037121981001
10
-66.665199999932
20
-117.93037121981001
42
0.41421356237309503
10
-66.565199999932005
20
-117.83037121981002
10
-66.565199999931821
20
-117.68037121980468
42
-1.0000116815046833
10
-65.065200000034167
20
-117.68037121981001
10
-65.06520000003502
20
-118.33037121981
42
0.41421356237309503
10
-64.965200000034997
20
-118.43037121981
10
-64.315200000000004
20
-118.43037121981001
42
-0.93527406310983152
10
-64.228533333332507
20
-119.7245675321937
42
0.37556530083189443
10
-64.315200000000004
20
-119.82367465717002
10
-64.315200000000004
20
-119.83037121670002
42
0.41421356237309503
10
-64.215199999999996
20
-119.93037121670001
10
-30.915259572014001
20
-119.9303712167
42
0.41421356237309503
10
-30.815259572014003
20
-119.83037121670002
10
-30.815259572014
20
-119.82366619941001
42
0.37554118182835072
10
-30.901917859129572
20
-119.72456020213427
42
-0.93523207511477968
10
-30.815200000000004
20
-118.43037121980826
10
-30.165199999925999
20
-118.43037121981
42
0.41421356237309503
10
-30.065199999926001
20
-118.33037121981
10
-30.065199999926278
20
-117.68037121981567
42
-0.99999352358477067
10
-28.565199999957727
20
-117.68037121981001
10
-28.565199999958004
20
-117.83037121981002
42
0.41421356237309503
10
-28.465199999958003
20
-117.93037121981001
10
-6.8500000000000005
20
-117.93037121981001
42
0.41421356237309503
10
-6.75
20
-117.83037121981002
10
-6.7500000000000036
20
-116.44686095858
42
-0.41421356237309503
10
-5.25
20
-114.94686095858
10
5.25
20
-114.94686095858
42
-0.41421356237309503
10
6.75
20
-116.44686095858
10
6.75
20
-117.83037121981002
42
0.41421356237309503
10
6.8500000000000005
20
-117.93037121981001
10
28.465199999999999
20
-117.93037121981001
42
0.41421356237309503
10
28.565199999999997
20
-117.83037121981002
10
28.5651999999927
20
-117.68037121981017
42
-1.0233719501943777
10
30.064799777247309
20
-117.68037121980994
10
30.064799777250002
20
-118.33037121981
42
0.41421356237309503
10
30.16479977725
20
-118.43037121981
10
30.815200055840002
20
-118.43037121981
42
-0.93527405150249987
10
30.901866669490808
20
-119.72456753466601
42
0.37556530895749796
10
30.815200000000004
20
-119.82367466002002
10
30.815200000000004
20
-119.83037121981
42
0.41421356237309503
10
30.915199999999999
20
-119.93037121981001
10
64.215199999999996
20
-119.93037121981001
42
0.41421356237309503
10
64.315200000000004
20
-119.83037121981
10
64.315200000000004
20
-119.82367465717002
42
0.37556530084036088
10
64.228533333329565
20
-119.7245675321933
42
-0.93527406310769168
10
64.315200000000004
20
-118.43037121981001
10
64.965200000050004
20
-118.43037121981
42
0.41421356237309503
10
65.065200000049998
20
-118.33037121981
10
65.065200000048492
20
-117.68037121981718
42
-1.0000144675360809
10
66.565199999891519
20
-117.68037121981001
10
66.565199999889998
20
-117.83037121981002
42
0.41421356237309503
10
66.665199999890007
20
-117.93037121981001
10
112.320217193
20
-117.93037121981001
42
0.41421356237309503
10
112.420217193
20
-117.83037121981002
10
112.42021719300027
20
-117.68037121980998
42
-1.0331729750896887
10
113.92021719299976
20
-117.68037121981001
10
113.92021719300001
20
-118.33037121981
42
0.41421356237309503
10
114.02021719300001
20
-118.43037121981
10
114.67021575730001
20
-118.43037121981
42
-0.93527497696012962
10
114.75688116790094
20
-119.72456770117682
42
0.37556585702037254
10
114.67021430800001
20
-119.82367485215001
10
114.67021430800001
20
-119.83037121981
42
0.41421356237309503
10
114.77021430800001
20
-119.93037121981001
10
148.070214308
20
-119.93037121981001
42
0.41421356237309503
10
148.170214308
20
-119.83037121981
10
148.170214308
20
-119.82367465717002
42
0.3755653009252401
10
148.08354764130007
20
-119.72456753218935
42
-0.93527502893708125
10
148.17021564750002
20
-118.43037121981139
10
148.8206174158
20
-118.43037121981
42
0.41421356237309503
10
148.9206174158
20
-118.33037121981
10
148.92061741577294
20
-117.68037121981064
42
-1.0233719502088181
10
150.42021719302707
20
-117.68037121981064
10
150.42021719300004
20
-117.83037121981002
42
0.41421356237309503
10
150.52021719300001
20
-117.93037121981001
10
160.3750179999
20
-117.93037121981001
42
0.41421356237309503
10
160.47501799990002
20
-117.83037121981002
10
160.47501799990002
20
-117.68036373899001
42
-0.99999999999999989
10
161.97501799989999
20
-117.68036373899001
10
161.97501800000001
20
-118.62917892469
42
0.051026789775488239
10
162.01024508982579
20
-118.97346246706468
42
1.0000024652334207
10
162.64677587977229
20
-118.84182450350507
42
-1.2279652369695362
10
164.7032601202236
20
-118.84182450352489
42
1.0000024652334207
10
165.33979091013038
20
-118.97346246707629
42
0.05102678977847467
10
165.37501800000001
20
-118.62917892469
10
165.37501800000001
20
-117.68036373899001
42
-0.40255644930965934
10
166.09505353660015
20
-116.93096255742358
42
0.40255995490763852
10
168.97521719296412
20
-113.93334229761001
10
168.97521719299999
20
-36.371158206985008
42
0.39280321362170323
10
166.19596373100006
20
-33.37929073566152
42
-0.39280321362157056
10
164.80633700000001
20
-31.883357
10
164.80633700000001
20
-23.531837694834003
42
0.41421356237309503
10
161.80633700000001
20
-20.531837694834003
10
150.52021719300001
20
-20.531837694834
42
0.41421356237309503
10
150.42021719300001
20
-20.631837694834001
10
150.42021719300001
20
-20.781837878786845
42
-0.99999993294477685
10
148.92021719300001
20
-20.781837694834003
10
148.92021719300001
20
-20.131905352578002
42
0.41441167430107162
10
148.82014955810001
20
-20.0319053754504
10
148.16998156490001
20
-20.032345115737481
42
-0.93522501220481213
10
148.08353860470083
20
-18.738138399425178
42
0.37559961525169749
10
148.17021719299998
20
-18.639029671301
10
148.17021719300001
20
-18.632345138333001
42
0.41421356237309503
10
148.07021719299999
20
-18.532345138333003
10
114.77021719299999
20
-18.532345138333
42
0.41421356237309503
10
114.670217193
20
-18.632345138333001
10
114.670217193
20
-18.639025395577999
42
0.37561181051531128
10
114.75690001820075
20
-18.738134693100413
42
-0.93543787458785843
10
114.670217193
20
-20.032345115737424
10
114.02021719300001
20
-20.032345115737002
42
0.41421356237309503
10
113.92021719300001
20
-20.132345115736999
10
113.92021719299925
20
-20.782345115737005
42
-0.93739441808508994
10
112.42630519039018
20
-20.876446145149444
42
0.13413666313823347
10
112.32509269726188
20
-20.6331253998049
42
-0.16673820364733488
10
112.219821
20
-20.326222211457999
10
112.219821
20
-19.830454
42
0.05102679093412537
10
112.18459390858277
20
-19.486170449929887
42
1.0000024626312545
10
111.54806312147387
20
-19.617808427210729
42
-1.227965229603289
10
109.49157887852421
20
-19.617808427220005
42
1.0000024607596001
10
108.85504809150112
20
-19.48617044977523
42
0.051026790958960372
10
108.819821
20
-19.830454
10
108.819821
20
-20.781070419001999
42
-0.99999999999999989
10
107.31982100000002
20
-20.781070419001999
10
107.31982100000002
20
-20.632334004534002
42
0.41421356237309503
10
107.219821
20
-20.532334004534004
10
95.132689296580025
20
-20.532334004534
42
-0.052407683410011716
10
94.820822321480051
20
-20.499555524905759
10
66.242543226750001
20
-14.425066205418
42
0.41421356238210905
10
66.123937327045979
20
-14.502089841765144
10
66.092633931611218
20
-14.649361015401345
42
-0.99999574012699299
10
64.62552941548951
20
-14.336944084466896
10
64.760671779310002
20
-13.701148054895
42
0.41421345036248619
10
64.683648180370156
20
-13.582542163149276
10
64.047852202480172
20
-13.447399556165241
42
-0.93527421429988589
10
64.232158876790052
20
-12.163465643439189
42
0.37556525292209358
10
64.337537264625524
20
-12.084543369134176
10
64.338929568629993
20
-12.077993127484001
42
0.41421356235345297
10
64.261906101759664
20
-11.959387117725642
10
31.689598242630002
20
-5.0358937270390003
42
0.41421356236693241
10
31.570992232874048
20
-5.1129171939128595
10
31.56959873397
20
-5.1194730570480012
42
0.37554885830839418
10
31.633760447919975
20
-5.2344315943030661
42
-0.93521558659274062
10
31.279915206780018
20
-6.4823236919499223
10
30.643297511170005
20
-6.347006423471
42
0.41174471470336071
10
30.524870466098374
20
-6.4232055475076404
10
30.38418723595635
20
-7.0586589937058175
42
-1.000006004261526
10
28.916953872654343
20
-6.7468477406497982
10
28.946901706360002
20
-6.5998677173200004
42
0.41421356235926537
10
28.868880246610026
20
-6.481915812637884
10
23.396749277800005
20
-5.3669447807170005
42
0.41421356237257589
10
23.278797373113918
20
-5.444966240462799
10
23.247591121199122
20
-5.5981224146048216
42
-0.99999999999999989
10
21.777790887960876
20
-5.2986440775371788
10
21.975933594760001
20
-4.3261857704790003
42
0.051026790653043864
10
22.010152713347857
20
-3.9818005770850062
42
1.000002463262335
10
21.360155498746654
20
-3.9837034724360092
42
-1.2279651970790435
10
19.345074796752677
20
-3.5731218711411463
42
1.0000024272232653
10
18.747641265346981
20
-3.317049272926706
42
0.051026802575429915
10
18.644386399420384
20
-3.6473682064550776
10
18.446243681529122
20
-4.6198265679408221
42
-0.99999999999999989
10
16.97644344829088
20
-4.3203482308731793
10
17.007649711300001
20
-4.1671920022990001
42
0.41421356237363249
10
16.929628251550024
20
-4.0492400976118823
10
12.994220368090001
20
-3.2473832316409998
42
0.27817927792184377
10
12.507666362358805
20
-3.4203915151580171
42
-0.27817927792435587
10
11.534558350879941
20
-3.7664080821953001
10
7.807352788398088
20
-3.0069733654715751
42
-0.27817927792603453
10
7.0472071499477265
20
-2.3077986555387877
42
0.27817927792602903
10
6.6671343307220363
20
-1.9582113005718207
0
LWPOLYLINE
5
101
100
AcDbEntity
8
0
100
AcDbPolyline
90
4
70
1
43
0.0
10
-146.26853902261001
20
-19.982446353076003
42
0.99999999999999989
10
-146.26853902261001
20
-21.482446353076003
10
-117.26853902261
20
-21.482446353076003
42
0.99999999999999989
10
-117.26853902261
20
-19.982446353076
0
LWPOLYLINE
5
102
100
AcDbEntity
8
0
100
AcDbPolyline
90
8
70
1
43
0.0
10
-144.35938661028999
20
-23.442835377834999
10
-144.35938661087999
20
-36.442835377835998
42
-0.41421356237134949
10
-144.8593866109
20
-36.942835377812997
10
-157.8593866109
20
-36.942835377230011
42
-0.4142135623689952
10
-158.35938661087002
20
-36.442835377206997
10
-158.35938661029002
20
-23.442835377207004
42
-0.41421356237132867
10
-157.85938661027001
20
-22.942835377230004
10
-144.85938661027001
20
-22.942835377811992
42
-0.4142135623748614
0
LWPOLYLINE
5
103
100
AcDbEntity
8
0
100
AcDbPolyline
90
14
70
1
43
0.0
10
-166.80253661174004
20
-55.540835376827005
42
0.41421356237486917
10
-166.30253661175999
20
-56.040835376849998
10
-153.30253661172003
20
-56.040835377411
42
0.41421356237309503
10
-152.80253661172
20
-55.540835377411
10
-152.80253661172
20
-55.040835079225005
10
-152.07178659812001
20
-55.040835079234
42
0.41421355778814384
10
-151.57178661168001
20
-54.540835073501
10
-151.57178661107
20
-40.540835079278999
42
0.41421356237425527
10
-152.07178661104999
20
-40.040835079257
10
-158.07178661104004
20
-40.040835078985999
42
0.41421356237776197
10
-158.57178661107
20
-40.540835078964001
10
-158.57178661114
20
-42.040835377196998
10
-166.30253661112999
20
-42.040835376850005
42
0.41421356237720525
10
-166.80253661116001
20
-42.540835376826998
0
LWPOLYLINE
5
104
100
AcDbEntity
8
0
100
AcDbPolyline
90
14
70
1
43
0.0
10
-127.10878661176
20
-56.04083537860901
42
0.41421356237720008
10
-126.60878661173
20
-55.540835378632003
10
-126.60878661114999
20
-42.540835378631002
42
0.41421356237426565
10
-127.10878661113
20
-42.040835378609003
10
-127.69578661113999
20
-42.040835378582997
10
-127.69578661105999
20
-40.540835080353006
42
0.41421356237486401
10
-128.19578661104001
20
-40.040835080329998
10
-134.19578661104001
20
-40.040835080058997
42
0.41421356237718443
10
-134.69578661106999
20
-40.540835080035997
10
-134.69578661113999
20
-42.040835378268
10
-149.63378661113003
20
-42.040835377598
42
0.41421356237717927
10
-150.13378661116002
20
-42.540835377575007
10
-150.13378661173999
20
-55.540835377576997
42
0.41421356237426049
10
-149.63378661176
20
-56.040835377599009
0
LWPOLYLINE
5
105
100
AcDbEntity
8
0
100
AcDbPolyline
90
4
70
1
43
0.0
10
-61.683204649887166
20
-13.00745925275425
42
0.99999999999999989
10
-61.371337113654093
20
-14.474680653853593
10
-33.005056692401041
20
-8.4452416200137943
42
0.99999999999999989
10
-33.316924228634001
20
-6.9780202189149998
0
LWPOLYLINE
5
106
100
AcDbEntity
8
0
100
AcDbPolyline
90
8
70
1
43
0.0
10
-67.178179395314999
20
-19.677494140806001
10
-64.47532741525248
20
-32.393412950464885
42
-0.41421356237309687
10
-64.860445370236889
20
-32.986442596223526
10
-77.57636417989589
20
-35.689294576285533
42
-0.41421356237321005
10
-78.169393825654566
20
-35.304176621300911
10
-80.872245805716574
20
-22.58825781164191
42
-0.41421356237309709
10
-80.487127850731909
20
-21.995228165883425
10
-67.771209041072808
20
-19.292376185821958
42
-0.41421356237297974
0
LWPOLYLINE
5
107
100
AcDbEntity
8
0
100
AcDbPolyline
90
67
70
1
43
0.0
10
-116.09378661372
20
-96.690835379950997
10
-116.09378661372
20
-94.140835379951
10
-129.28378661347
20
-94.140835378513003
42
-0.41421356237485357
10
-129.78378661345002
20
-93.640835378489996
10
-129.78378661286004
20
-80.640835378489001
42
-0.41421356237192958
10
-129.28378661284
20
-80.140835378510999
10
-122.8237866126
20
-80.140835378511994
10
-122.8237866126
20
-58.540835379042008
42
-0.41421356237309503
10
-122.3237866126
20
-58.040835379042008
10
-117.46378661174001
20
-58.040835379042008
10
-117.46378661174003
20
-39.490835380640007
42
-0.41421356237309503
10
-116.96378661174002
20
-38.990835380640007
10
-76.294110904597005
20
-38.99083538064
10
-45.493223991464006
20
-32.443904763436997
10
-48.507943507687578
20
-18.260764552660909
42
-0.41421356237297308
10
-48.122825552703119
20
-17.667734906902471
10
-40.35828989801
20
-16.017331905540001
10
-40.462245805402539
20
-15.528257813456115
42
-0.41421356237321855
10
-40.077127850417909
20
-14.935228167697428
10
-27.361209040756115
20
-12.232376187634472
42
-0.41421356237321416
10
-26.768179394997432
20
-12.617494142619092
10
-26.664223487604005
20
-13.106568234706
10
-18.899687832904114
20
-11.456165233341471
42
-0.41421356237321855
10
-18.306658187145427
20
-11.841283188326093
10
-15.291938670922001
20
-26.024423399099
10
4.5598556645998869
20
-21.804794253087469
42
-0.10510423526588045
10
4.76776735541804
20
-21.804794253096809
10
29.533414949520001
20
-27.068895154404998
10
32.549084967527897
20
-12.881283190609556
42
-0.41421356237227602
10
33.142114613320082
20
-12.496165235678605
10
38.521926417309949
20
-13.639679535421244
42
-0.029842482067379619
10
38.63689768404992
20
-13.671388233897233
10
40.807956908509773
20
-14.132861117933071
42
-0.024892862960256137
10
40.904142225809466
20
-14.158367647935657
10
41.010606175308091
20
-13.657494145661598
42
-0.41421356237158946
10
41.603635821099886
20
-13.272376190731565
10
53.830480830159885
20
-15.871272326504545
42
-0.024024055597904465
10
53.923355653279749
20
-15.895728429410818
10
56.610995628350089
20
-16.467003941647608
42
-0.41421356237391466
10
56.99611358328211
20
-17.060033587441449
10
56.892188351300057
20
-17.548963362877505
42
-0.023636216211784664
10
56.985440528590054
20
-17.56422061212476
10
61.876178532209806
20
-18.603779066433912
42
-0.029842482045297287
10
61.991149798969516
20
-18.635487764917428
10
64.651282823770089
20
-19.200916494377609
42
-0.41421356237390827
10
65.036400778702102
20
-19.79394614017145
10
62.022209411360009
20
-33.974601599556003
10
85.621733928089995
20
-38.990835388996999
10
109.5762133879
20
-38.990835388996992
42
-0.41421356237309503
10
110.07621338790001
20
-39.490835388996999
10
110.07621338790001
20
-58.040835389258007
10
113.32621338700001
20
-58.040835389257992
42
-0.41421356237309503
10
113.82621338700002
20
-58.540835389258
10
113.82621338700002
20
-96.690835388682999
42
-0.41421356237309503
10
113.32621338700001
20
-97.190835388683013
10
97.496213386170012
20
-97.190835388683013
10
97.496213386170012
20
-98.469294583727006
42
-0.41421356237309503
10
96.996213386169998
20
-98.96929458372702
10
87.910775155460001
20
-98.969294583726992
42
-0.05240777929380161
10
87.806819310030136
20
-98.958368384089454
10
4.6786295787710053
20
-81.288926193023002
10
-75.069475387258905
20
-98.239909180575523
42
-0.0524077792718795
10
-75.173431232645996
20
-98.250835380203995
10
-96.233786613456999
20
-98.250835380204009
42
-0.41421356237309503
10
-96.733786613457013
20
-97.750835380203995
10
-96.733786613457013
20
-97.190835379951011
10
-115.59378661372001
20
-97.190835379950983
42
-0.41421356237309503
0
LWPOLYLINE
5
108
100
AcDbEntity
8
0
100
AcDbPolyline
90
8
70
1
43
0.0
10
-152.16178661205001
20
-62.590835675717003
42
0.41421356237482759
10
-152.66178661202997
20
-62.090835675694009
10
-158.66178661201999
20
-62.090835675426
42
0.41421356237721046
10
-159.16178661205004
20
-62.590835675403007
10
-159.16178661268003
20
-76.590835675403
42
0.41421356237485879
10
-158.66178661270001
20
-77.090835675426007
10
-152.66178661270001
20
-77.090835675693995
42
0.41421356237134688
10
-152.16178661268
20
-76.590835675717003
0
LWPOLYLINE
5
109
100
AcDbEntity
8
0
100
AcDbPolyline
90
8
70
1
43
0.0
10
-137.22378661261999
20
-75.090835378156996
10
-150.22378661261999
20
-75.090835377573015
42
-0.41421356237486917
10
-150.72378661260001
20
-74.590835377549993
10
-150.72378661201
20
-61.590835377550007
42
-0.41421356237134688
10
-150.22378661198999
20
-61.090835377573008
10
-137.22378661198999
20
-61.090835378153997
42
-0.41421356237485357
10
-136.72378661201
20
-61.590835378177005
10
-136.72378661260001
20
-74.590835378179008
42
-0.4142135623719036
0
LWPOLYLINE
5
110
100
AcDbEntity
8
0
100
AcDbPolyline
90
8
70
1
43
0.0
10
-134.78578661201999
20
-62.090835676495999
10
-128.78578661202999
20
-62.090835676765003
42
-0.41421356237484841
10
-128.28578661205
20
-62.590835676788004
10
-128.28578661268
20
-76.590835676788998
42
-0.41421356237192442
10
-128.78578661270001
20
-77.090835676767
10
-134.78578661269
20
-77.090835676496013
42
-0.41421356237426565
10
-135.28578661267002
20
-76.590835676474001
10
-135.28578661204
20
-62.590835676474008
42
-0.41421356237192442
0
LWPOLYLINE
5
111
100
AcDbEntity
8
0
100
AcDbPolyline
90
8
70
1
43
0.0
10
-139.60378661286001
20
-80.640835378047996
42
0.41421356237484319
10
-140.10378661284
20
-80.140835378025002
10
-153.10378661284
20
-80.140835377442997
42
0.41421356237134688
10
-153.60378661286001
20
-80.640835377420004
10
-153.60378661345004
20
-93.640835377418995
42
0.41421356237427087
10
-153.10378661346999
20
-94.140835377440993
10
-140.10378661346999
20
-94.140835378025997
42
0.41421356237132606
10
-139.60378661345001
20
-93.640835378049005
0
LWPOLYLINE
5
112
100
AcDbEntity
8
0
100
AcDbPolyline
90
20
70
1
43
0.0
10
-128.7307866136
20
-97.190835080305007
42
0.41421356237718443
10
-129.23078661363002
20
-97.690835080282014
10
-129.23078661369999
20
-99.190835378513995
10
-146.10678661371
20
-99.190835377756997
10
-146.10678661362999
20
-97.690835079526011
42
0.41421356237486401
10
-146.60678661361001
20
-97.190835079503017
10
-152.60678661360001
20
-97.190835079232002
42
0.41421356237718443
10
-153.10678661362999
20
-97.690835079208995
10
-153.1067866137
20
-99.190835377441999
10
-153.69378661369001
20
-99.190835377414004
42
0.41421356237777757
10
-154.19378661372002
20
-99.69083537739202
10
-154.1937866143
20
-112.69083537739
42
0.4142135623730846
10
-153.69378661432
20
-113.19083537741001
10
-121.64378661433
20
-113.19083537885001
42
0.4142135623789534
10
-121.14378661430001
20
-112.69083537887001
10
-121.14378661372
20
-99.690835378879001
42
0.41421356237427087
10
-121.64378661370002
20
-99.190835378857003
10
-122.23078661370002
20
-99.190835378827998
10
-122.23078661363002
20
-97.690835080594013
42
0.41421356237367774
10
-122.73078661360999
20
-97.190835080573009
0
LWPOLYLINE
5
113
100
AcDbEntity
8
0
100
AcDbPolyline
90
4
70
1
43
0.0
10
-146.26853902261001
20
-116.93037121981001
42
0.99999999999999989
10
-146.26853902261001
20
-118.43037121981
10
-117.26853902261
20
-118.43037121981
42
0.99999999999999989
10
-117.26853902261
20
-116.93037121981
0
LWPOLYLINE
5
114
100
AcDbEntity
8
0
100
AcDbPolyline
90
8
70
1
43
0.0
10
-116.09378661431002
20
-112.69083537909
10
-116.09378661372003
20
-99.690835379104996
42
-0.4142135623719192
10
-115.59378661370002
20
-99.190835379126995
10
-102.5937866137
20
-99.190835379711018
42
-0.41421356237484319
10
-102.09378661372
20
-99.690835379734011
10
-102.09378661431001
20
-112.69083537972001
42
-0.41421356237309503
10
-102.59378661433001
20
-113.19083537970002
10
-115.59378661433001
20
-113.19083537911001
42
-0.41421356237309503
0
LWPOLYLINE
5
115
100
AcDbEntity
8
0
100
AcDbPolyline
90
8
70
1
43
0.0
10
-96.96378661380102
20
-101.33083537995
42
0.41421356237483276
10
-97.463786613824013
20
-101.83083537992999
10
-97.463786614408008
20
-114.83083537992999
42
0.4142135623713365
10
-96.963786614431001
20
-115.33083537995
10
-83.963786614431001
20
-115.33083538054001
42
0.41421356237485357
10
-83.463786614408008
20
-114.83083538056
10
-83.463786613823999
20
-101.83083538056002
42
0.41421356237135726
10
-83.963786613801005
20
-101.33083538054001
0
LWPOLYLINE
5
116
100
AcDbEntity
8
0
100
AcDbPolyline
90
8
70
1
43
0.0
10
-45.834467604700002
20
-94.576776431688003
10
-43.131615624641043
20
-107.29269524133022
42
-0.41421356237456308
10
-43.516733579624685
20
-107.88572488709148
10
-56.232652389283686
20
-110.5885768671515
42
-0.41421356237148632
10
-56.825682035041922
20
-110.20345891216999
10
-59.528534015101584
20
-97.487540102523909
42
-0.41421356237297263
10
-59.143416060117111
20
-96.894510456765474
10
-46.427497250458003
20
-94.191658476703992
42
-0.41421356237310636
0
LWPOLYLINE
5
117
100
AcDbEntity
8
0
100
AcDbPolyline
90
8
70
1
43
0.0
10
-62.15044537377868
20
-111.84644259634149
42
0.41421356237469614
10
-61.765327418795088
20
-111.25341295058001
10
-64.468179398857473
20
-98.537494140919904
42
0.41421356237298285
10
-65.061209044616007
20
-98.152376185934997
10
-77.777127854279314
20
-100.85522816598854
42
0.41421356237468526
10
-78.162245809262998
20
-101.44825781175001
10
-75.459393829198959
20
-114.1641766214198
42
0.41421356237161283
10
-74.866364183440993
20
-114.5492945764
0
LWPOLYLINE
5
118
100
AcDbEntity
8
0
100
AcDbPolyline
90
4
70
1
43
0.0
10
-62.065200000000004
20
-116.93037121981001
42
0.99999999999999989
10
-62.065200000000004
20
-118.43037121981
10
-33.065199999999997
20
-118.43037121981
42
0.99999999999999989
10
-33.065199999999997
20
-116.93037121981
0
LWPOLYLINE
5
119
100
AcDbEntity
8
0
100
AcDbPolyline
90
8
70
1
43
0.0
10
-24.883021785466003
20
-103.92500717785001
10
-37.598940595123679
20
-106.6278591579115
42
-0.41421356237160989
10
-38.191970240881957
20
-106.24274120292981
10
-40.894822220943581
20
-93.52682239327892
42
-0.41421356237297768
10
-40.509704265959115
20
-92.933792747520471
10
-27.793785456299915
20
-90.230940767459458
42
-0.41421356237297158
10
-27.200755810541473
20
-90.616058722443881
10
-24.497903830483519
20
-103.33197753209052
42
-0.4142135623745774
0
LWPOLYLINE
5
120
100
AcDbEntity
8
0
100
AcDbPolyline
90
8
70
1
43
0.0
10
-8.5670440163869994
20
-86.655341013202019
10
-5.8641920363254707
20
-99.371259822855905
42
-0.414213562373211
10
-6.2493099913100902
20
-99.964289468614567
10
-18.965228800969683
20
-102.6671414486715
42
-0.4142135623716206
10
-19.558258446727965
20
-102.28202349368979
10
-22.261110426789582
20
-89.566104684037924
42
-0.41421356237296958
10
-21.875992471805112
20
-88.973075038279475
10
-9.160073662144999
20
-86.270223058217994
42
-0.41421356237309986
0
LWPOLYLINE
5
121
100
AcDbEntity
8
0
100
AcDbPolyline
90
20
70
1
43
0.0
10
-38.235610210982998
20
-109.7612399626
10
-30.899503205408294
20
-108.20190228178811
42
-0.99999999999999989
10
-30.691591514637715
20
-109.18004988253193
10
-37.440809959763001
20
-110.61464054888
42
0.41421356237923163
10
-37.517833550759775
20
-110.73324647802994
10
-37.102505477993674
20
-112.68721143490991
42
-0.99999999999999989
10
-42.384502522006343
20
-113.80993456509009
10
-42.799830594772999
20
-111.85596960821002
42
0.41421356236085338
10
-42.918436523922864
20
-111.77894601721539
10
-49.667654969049721
20
-113.2135366835513
42
-0.99999999999999989
10
-49.875566659826276
20
-112.23538908280872
10
-42.539459654251289
20
-110.67605140200808
42
-0.41421356237040202
10
-41.946430008495042
20
-111.06116935699022
10
-41.406354921263002
20
-113.60202287431001
42
0.051026790591451661
10
-41.300317052247458
20
-113.93145887652109
42
1.0000024632961382
10
-40.705065062770515
20
-113.67035531656111
42
-1.2279652313078149
10
-38.693519935317816
20
-113.24278819979
42
1.0000024632397992
10
-38.043529798695516
20
-113.23920737693001
42
0.051026790733006144
10
-38.080653078737591
20
-112.89512312568013
10
-38.620728165965438
20
-110.35426960835966
42
-0.41421356237469142
0
LWPOLYLINE
5
122
100
AcDbEntity
8
0
100
AcDbPolyline
90
8
70
1
43
0.0
10
26.712663875452542
20
-10.623087640620415
42
0.4142135623726948
10
26.327545920520087
20
-10.030057994828605
10
11.283635821400086
20
-6.8323761893726056
42
0.41421356237349849
10
10.690606175599999
20
-7.2174941443040019
10
7.9877541944018091
20
-19.93341295371296
42
0.41421356237321855
10
8.3728721493329985
20
-20.526442599507
10
23.41678224846012
20
-23.724124404962442
42
0.4142135623715838
10
24.009811894249999
20
-23.339006450032002
0
LWPOLYLINE
5
123
100
AcDbEntity
8
0
100
AcDbPolyline
90
4
70
1
43
0.0
10
33.48074647883022
20
-6.9501272300869861
42
0.99999999999999989
10
33.168878942609787
20
-8.4173486311890127
10
61.53515305415042
20
-14.446817349788024
42
0.99999999999999989
10
61.847020590379998
20
-12.979595948688999
0
LWPOLYLINE
5
124
100
AcDbEntity
8
0
100
AcDbPolyline
90
8
70
1
43
0.0
10
90.234672585179993
20
-22.588257819323001
10
87.531820603972108
20
-35.304176628746447
42
-0.41421356237228846
10
86.938790958179908
20
-35.689294583677395
10
74.222872148759919
20
-32.986442602469388
42
-0.41421356237391216
10
73.837754193827891
20
-32.393412956675554
10
76.540606175037894
20
-19.677494147252553
42
-0.41421356237228008
10
77.133635820830079
20
-19.292376192321605
10
89.849554630249628
20
-21.995228173531718
42
-0.4142135623739151
0
LWPOLYLINE
5
125
100
AcDbEntity
8
0
100
AcDbPolyline
90
4
70
1
43
0.0
10
116.92021719300001
20
-20.031837694834
42
0.99999999999999989
10
116.92021719300001
20
-21.531837694834003
10
145.92021719300001
20
-21.531837694834003
42
0.99999999999999989
10
145.92021719300001
20
-20.031837694834
0
LWPOLYLINE
5
126
100
AcDbEntity
8
0
100
AcDbPolyline
90
8
70
1
43
0.0
10
142.31621338900001
20
-36.990835390706003
42
0.41421356235962231
10
142.81621338900004
20
-36.490835390729004
10
142.81621338960002
20
-23.490835390726001
42
0.41421356238598245
10
142.31621338959999
20
-22.990835390704
10
129.31621338959999
20
-22.990835390123003
42
0.41421356235962231
10
128.81621338959999
20
-23.490835390099999
10
128.81621338900001
20
-36.490835390100997
42
0.41421356238598761
10
129.31621338900001
20
-36.990835390123003
0
LWPOLYLINE
5
127
100
AcDbEntity
8
0
100
AcDbPolyline
90
8
70
1
43
0.0
10
113.23821338819999
20
-54.54083509117001
42
0.41421356238598245
10
113.73821338820001
20
-55.040835091192008
10
119.73821338809999
20
-55.040835091463009
42
0.41421356236021284
10
120.23821338810001
20
-54.540835091485
10
120.23821338880001
20
-40.540835091482997
42
0.41421356238598245
10
119.73821338880001
20
-40.040835091460998
10
113.73821338889998
20
-40.040835091189997
42
0.41421356236019724
10
113.23821338889999
20
-40.540835091167999
0
LWPOLYLINE
5
128
100
AcDbEntity
8
0
100
AcDbPolyline
90
8
70
1
43
0.0
10
137.6142133889
20
-40.040835092263009
42
0.4142135623596197
10
137.1142133889
20
-40.540835092240002
10
137.1142133882
20
-54.540835092240002
42
0.41421356238657037
10
137.6142133882
20
-55.040835092263009
10
143.61421338820003
20
-55.040835092530997
42
0.4142135623596197
10
144.1142133882
20
-54.540835092554005
10
144.1142133889
20
-40.540835092553998
42
0.41421356238657037
10
143.6142133889
20
-40.040835092530997
0
LWPOLYLINE
5
129
100
AcDbEntity
8
0
100
AcDbPolyline
90
8
70
1
43
0.0
10
135.67621338870001
20
-42.540835390407999
10
135.6762133881
20
-55.540835390409001
42
-0.41421356236020762
10
135.1762133881
20
-56.040835390387002
10
122.17621338820001
20
-56.040835389803014
42
-0.41421356238657037
10
121.6762133882
20
-55.54083538978
10
121.67621338879999
20
-42.540835389779005
42
-0.41421356235962492
10
122.17621338880001
20
-42.040835389801998
10
135.17621338870001
20
-42.040835390384991
42
-0.41421356238657037
0
LWPOLYLINE
5
130
100
AcDbEntity
8
0
100
AcDbPolyline
90
8
70
1
43
0.0
10
18.997655573319513
20
-100.68714145037232
42
0.41421356237309015
10
19.590685219112309
20
-100.30202349544049
10
22.293537200312535
20
-87.586104686038425
42
0.41421356237270135
10
21.908419245380003
20
-86.993075040247007
10
9.1925004359860409
20
-84.290223059042816
42
0.41421356237310031
10
8.5994707901929992
20
-84.67534101397402
10
5.8966188089878058
20
-97.391259823381972
42
0.41421356237308676
10
6.2817367639190014
20
-97.984289469174996
0
LWPOLYLINE
5
131
100
AcDbEntity
8
0
100
AcDbPolyline
90
8
70
1
43
0.0
10
40.927248994129997
20
-91.546822396955008
10
38.224397012922317
20
-104.26274120637049
42
-0.4142135623730957
10
37.631367367129506
20
-104.64785916130232
10
24.915448557699513
20
-101.94500718009232
42
-0.41421356237309681
10
24.530330602767691
20
-101.35197753429951
10
27.233182583977907
20
-88.63605872488256
42
-0.41421356237227225
10
27.826212229770082
20
-88.250940769951626
10
40.542131039199688
20
-90.953792751162496
42
-0.41421356237448348
0
LWPOLYLINE
5
132
100
AcDbEntity
8
0
100
AcDbPolyline
90
8
70
1
43
0.0
10
56.265079160930007
20
-108.60857687220999
10
43.549160351509506
20
-105.90572489100232
42
-0.41421356237309476
10
43.164042396577699
20
-105.31269524520951
10
45.866894377787908
20
-92.596776435799555
42
-0.41421356237227591
10
46.459924023580086
20
-92.211658480868621
10
59.17584283300009
20
-94.914510462076606
42
-0.41421356237391671
10
59.560960787932103
20
-95.507540107870454
10
56.858108806719997
20
-108.22345891728
42
-0.41421356237309614
0
LWPOLYLINE
5
133
100
AcDbEntity
8
0
100
AcDbPolyline
90
8
70
1
43
0.0
10
65.09363581738009
20
-96.172376191789624
42
0.41421356237229306
10
64.50060617158789
20
-96.557494146720572
10
61.797754190387259
20
-109.27341295613155
42
0.41421356237187634
10
62.182872145320005
20
-109.86644260192001
10
74.898790954731552
20
-112.56929458312274
42
0.41421356236613582
10
75.491820600520015
20
-112.18417662820002
10
78.194672581722116
20
-99.468257818789439
42
0.41421356237390039
10
77.809554626790003
20
-98.875228172996003
0
LWPOLYLINE
5
134
100
AcDbEntity
8
0
100
AcDbPolyline
90
20
70
1
43
0.0
10
43.99554054899
20
-109.00221501402001
10
51.331647619832054
20
-110.56155270938626
42
-1.0000000105367122
10
51.123735791961487
20
-111.53970100532304
10
44.37451687794001
20
-110.10511023868
42
0.41421356234448103
10
44.255910948788006
20
-110.1821338296717
10
43.840579521955547
20
-112.13611456532908
42
-0.99999999999999989
10
38.558582478044471
20
-111.01339143467095
10
38.973910528479998
20
-109.05942658367002
42
0.41421356237310547
10
38.896886937500334
20
-108.94082065450846
10
32.147668063429514
20
-107.50622989636233
42
-0.99999999999999989
10
32.355579754290488
20
-106.52808229563769
10
39.691686828990058
20
-108.08741999182972
42
-0.41421352088839125
10
40.076804798634342
20
-108.68044956835881
10
39.536730078760002
20
-111.22130312553
42
0.051026660692077029
10
39.499606803554506
20
-111.56538649481001
42
1.0000027363556279
10
40.149596931437387
20
-111.56896890416004
42
-1.2279656513206278
10
42.161142063164846
20
-111.99653531566213
42
1.0000027712092083
10
42.75639413214472
20
-112.25763869436209
42
0.051026761241069162
10
42.862431921232528
20
-111.92820287446054
10
43.402510919290535
20
-109.38733289325012
42
-0.41421351703845766
0
LWPOLYLINE
5
135
100
AcDbEntity
8
0
100
AcDbPolyline
90
4
70
1
43
0.0
10
33.065199999999997
20
-116.93037121981001
42
0.99999999999999989
10
33.065199999999997
20
-118.43037121981
10
62.065200000000004
20
-118.43037121981
42
0.99999999999999989
10
62.065200000000004
20
-116.93037121981
0
LWPOLYLINE
5
136
100
AcDbEntity
8
0
100
AcDbPolyline
90
8
70
1
43
0.0
10
122.77371338790002
20
-61.090835390048007
42
0.4142135623596197
10
122.2737133879
20
-61.590835390025006
10
122.27371338730001
20
-74.590834675924
42
0.41421314407652332
10
122.7737126732
20
-75.090834675945999
10
140.53621267290001
20
-75.090860044989483
42
0.4142139806639113
10
141.03621338700003
20
-74.590860045023007
10
141.03621338790003
20
-61.590835390652003
42
0.41421356239242874
10
140.53621338790003
20
-61.090835390618999
0
LWPOLYLINE
5
137
100
AcDbEntity
8
0
100
AcDbPolyline
90
8
70
1
43
0.0
10
166.43621338780002
20
-63.730835391789
42
0.41421356238656515
10
165.9362133878
20
-63.230835391766007
10
152.9362133878
20
-63.230835391183007
42
0.4142135623596197
10
152.4362133878
20
-63.730835391159999
10
152.43621338720001
20
-76.730835391159999
42
0.41421356238657558
10
152.93621338720001
20
-77.230835391183007
10
165.93621338720001
20
-77.230835391766007
42
0.41421356235962492
10
166.43621338720004
20
-76.730835391789014
0
LWPOLYLINE
5
138
100
AcDbEntity
8
0
100
AcDbPolyline
90
8
70
1
43
0.0
10
134.5862133871
20
-80.640835390358006
42
0.41421356238598761
10
134.0862133871
20
-80.140835390335994
10
121.08621338700002
20
-80.140835389754002
42
0.41421356235960932
10
120.586213387
20
-80.640835389730995
10
120.5862133864
20
-93.64083538973
42
0.41421356238597723
10
121.0862133864
20
-94.140835389751999
10
134.08621338649999
20
-94.140835390335994
42
0.41421356235960932
10
134.58621338649999
20
-93.640835390359015
0
LWPOLYLINE
5
139
100
AcDbEntity
8
0
100
AcDbPolyline
90
8
70
1
43
0.0
10
148.86621338699999
20
-82.280835390999997
10
161.86621338689997
20
-82.280835391582997
42
-0.41421356238657037
10
162.3662133869
20
-82.780835391606018
10
162.36621338630002
20
-95.780835391606004
42
-0.4142135623596197
10
161.86621338630002
20
-96.280835391582997
10
148.86621338640001
20
-96.280835391000011
42
-0.41421356238655993
10
148.36621338640001
20
-95.780835390977018
10
148.36621338699999
20
-82.780835390977003
42
-0.4142135623596197
0
LWPOLYLINE
5
140
100
AcDbEntity
8
0
100
AcDbPolyline
90
8
70
1
43
0.0
10
83.496213385580006
20
-114.83083538805002
42
0.41421356237309503
10
83.996213385560011
20
-115.33083538807003
10
96.996213385559997
20
-115.33083538866002
42
0.41421356237310542
10
97.496213385580006
20
-114.83083538868001
10
97.496213386170012
20
-101.83083538868001
42
0.4142135623730846
10
96.996213386190021
20
-101.33083538866002
10
83.996213386190007
20
-101.33083538807
42
0.41421356237309503
10
83.496213386169998
20
-101.83083538805001
0
LWPOLYLINE
5
141
100
AcDbEntity
8
0
100
AcDbPolyline
90
8
70
1
43
0.0
10
116.13621338620001
20
-99.690835389531003
42
0.41421356238657037
10
115.63621338620001
20
-99.190835389507996
10
102.6362133862
20
-99.190835388924995
42
0.41421356235963014
10
102.13621338620001
20
-99.690835388902016
10
102.1362133856
20
-112.69083538888999
42
0.41421356238482221
10
102.6362133856
20
-113.19083538891
10
115.6362133856
20
-113.19083538949999
42
0.41421356236136786
10
116.13621338560002
20
-112.69083538952002
0
LWPOLYLINE
5
142
100
AcDbEntity
8
0
100
AcDbPolyline
90
8
70
1
43
0.0
10
121.6862133862
20
-99.190835389778016
10
134.6862133862
20
-99.190835390364001
42
-0.41421356238597723
10
135.1862133862
20
-99.690835390385999
10
135.18621338560001
20
-112.69083539038
42
-0.41421356236137824
10
134.68621338560001
20
-113.19083539036001
10
121.68621338560001
20
-113.19083538977
42
-0.41421356238480139
10
121.18621338560001
20
-112.69083538975002
10
121.18621338620001
20
-99.690835389756018
42
-0.41421356236021284
0
LWPOLYLINE
5
143
100
AcDbEntity
8
0
100
AcDbPolyline
90
4
70
1
43
0.0
10
116.92021719300001
20
-116.93037121981001
42
0.99999999999999989
10
116.92021719300001
20
-118.43037121981
10
145.92021719300001
20
-118.43037121981
42
0.99999999999999989
10
145.92021719300001
20
-116.93037121981
0
LWPOLYLINE
5
144
100
AcDbEntity
8
0
100
AcDbPolyline
90
8
70
1
43
0.0
10
158.20621338609999
20
-101.83083539141002
42
0.41421356238482221
10
157.70621338609999
20
-101.33083539139
10
144.70621338609999
20
-101.33083539080002
42
0.41421356236136786
10
144.20621338609999
20
-101.83083539078
10
144.20621338550001
20
-114.83083539078001
42
0.41421356238481177
10
144.70621338550001
20
-115.33083539080002
10
157.70621338550001
20
-115.33083539139001
42
0.41421356236137824
10
158.20621338550001
20
-114.83083539141001
0
ENDSEC
0
SECTION
2
OBJECTS
0
DICTIONARY
5
C
100
AcDbDictionary
3
ACAD_GROUP
350
D
3
ACAD_MLINESTYLE
350
17
0
DICTIONARY
5
D
100
AcDbDictionary
0
DICTIONARY
5
1A
330
C
100
AcDbDictionary
0
DICTIONARY
5
17
100
AcDbDictionary
0
ENDSEC
0
EOF
