0
SECTION
2
HEADER
9
$INSUNITS
70
4
9
$ACADVER
1
AC1014
9
$HANDSEED
5
FFFF
0
ENDSEC
0
SECTION
2
TABLES
0
TABLE
2
VPORT
5
8
100
AcDbSymbolTable
0
ENDTAB
0
TABLE
2
LTYPE
5
5
100
AcDbSymbolTable
0
LTYPE
5
14
100
AcDbSymbolTableRecord
100
AcDbLinetypeTableRecord
2
BYBLOCK
70
0
0
LTYPE
5
15
100
AcDbSymbolTableRecord
100
AcDbLinetypeTableRecord
2
BYLAYER
70
0
0
ENDTAB
0
TABLE
2
LAYER
5
2
100
AcDbSymbolTable
70
2
0
LAYER
5
50
100
AcDbSymbolTableRecord
100
AcDbLayerTableRecord
2
0
70
0
6
CONTINUOUS
0
ENDTAB
0
TABLE
2
STYLE
5
3
100
AcDbSymbolTable
70
1
0
STYLE
5
11
100
AcDbSymbolTableRecord
100
AcDbTextStyleTableRecord
2
STANDARD
70
0
0
ENDTAB
0
TABLE
2
VIEW
5
6
100
AcDbSymbolTable
70
0
0
ENDTAB
0
TABLE
2
UCS
5
7
100
AcDbSymbolTable
70
0
0
ENDTAB
0
TABLE
2
APPID
5
9
100
AcDbSymbolTable
70
2
0
APPID
5
12
100
AcDbSymbolTableRecord
100
AcDbRegAppTableRecord
2
ACAD
70
0
0
ENDTAB
0
TABLE
2
DIMSTYLE
5
A
100
AcDbSymbolTable
70
1
0
ENDTAB
0
TABLE
2
BLOCK_RECORD
5
1
100
AcDbSymbolTable
70
1
0
BLOCK_RECORD
5
1F
100
AcDbSymbolTableRecord
100
AcDbBlockTableRecord
2
*MODEL_SPACE
0
BLOCK_RECORD
5
1B
100
AcDbSymbolTableRecord
100
AcDbBlockTableRecord
2
*PAPER_SPACE
0
ENDTAB
0
ENDSEC
0
SECTION
2
BLOCKS
0
BLOCK
5
20
100
AcDbEntity
100
AcDbBlockBegin
2
*MODEL_SPACE
0
ENDBLK
5
21
100
AcDbEntity
100
AcDbBlockEnd
0
BLOCK
5
1C
100
AcDbEntity
100
AcDbBlockBegin
2
*PAPER_SPACE
0
ENDBLK
5
1D
100
AcDbEntity
100
AcDbBlockEnd
0
ENDSEC
0
SECTION
2
ENTITIES
0
LWPOLYLINE
5
100
100
AcDbEntity
8
0
100
AcDbPolyline
90
285
70
1
43
0.0
10
164.80633700000001
20
-31.883357
42
0.39280321362157056
10
166.19596373100001
20
-33.379290735662011
42
-0.39280321362170323
10
168.97521719299999
20
-36.371158206985008
10
168.97521719301668
20
-113.93335697115
42
-0.40255771372155413
10
166.09506200000067
20
-116.93096221906626
42
0.40255973023518382
10
165.37501800000001
20
-117.68036373899001
10
165.37501799995943
20
-118.62917892469
42
-0.05102678977847469
10
165.33979091009431
20
-118.97346246706009
42
-1.0000024652334207
10
164.7032601202236
20
-118.84182450352489
42
1.2279652369695362
10
162.64677587965633
20
-118.8418245035203
42
-1.0000024652334207
10
162.01024508982582
20
-118.97346246706468
42
-0.051026789775488204
10
161.97501800000001
20
-118.62917892469
10
161.97501799989999
20
-117.68036373899001
42
0.99999999999999989
10
160.47501799989999
20
-117.68036373899001
10
160.47501799990002
20
-117.83037121981002
42
-0.41421356237309503
10
160.3750179999
20
-117.93037121981001
10
150.52021719300001
20
-117.93037121981
42
-0.41421356237309503
10
150.42021719300004
20
-117.83037121981002
10
150.42021719302707
20
-117.68037121981064
42
1.0233719502088181
10
148.9206174158
20
-117.68037121981001
10
148.9206174158
20
-118.33037121981
42
-0.41421356237309503
10
148.8206174158
20
-118.43037121981
10
148.17021564750002
20
-118.43037121981139
42
0.93527502893708125
10
148.08354764130087
20
-119.72456753218353
42
-0.3755653009252401
10
148.170214308
20
-119.82367465717002
10
148.170214308
20
-119.83037121981
42
-0.41421356237309503
10
148.070214308
20
-119.93037121981001
10
114.77021430800001
20
-119.93037121981001
42
-0.41421356237309503
10
114.67021430800001
20
-119.83037121981
10
114.67021430800541
20
-119.82367485215001
42
-0.37556585702037254
10
114.75688116790094
20
-119.72456770117682
42
0.93527497696012962
10
114.67021575730001
20
-118.43037121981
10
114.02021719300001
20
-118.43037121981
42
-0.41421356237309503
10
113.92021719300001
20
-118.33037121981
10
113.92021719299976
20
-117.68037121981001
42
1.0331729750896887
10
112.420217193
20
-117.68037121981001
10
112.420217193
20
-117.83037121981002
42
-0.41421356237309503
10
112.320217193
20
-117.93037121981001
10
66.665199999890007
20
-117.93037121981001
42
-0.41421356237309503
10
66.565199999889998
20
-117.83037121981002
10
66.565199999891519
20
-117.68037121981001
42
1.0000144675360809
10
65.065200000049998
20
-117.68037121981001
10
65.065200000049998
20
-118.33037121981
42
-0.41421356237309503
10
64.965200000050004
20
-118.43037121981
10
64.315200000000004
20
-118.43037121981001
42
0.93527406310769168
10
64.228533333330347
20
-119.72456753218748
42
-0.37556530084036088
10
64.315200000000004
20
-119.82367465717002
10
64.315200000000004
20
-119.83037121981
42
-0.41421356237309503
10
64.215199999999996
20
-119.93037121981001
10
30.915199999999999
20
-119.93037121981001
42
-0.41421356237309503
10
30.815200000000004
20
-119.83037121981
10
30.815200000007987
20
-119.82367466002002
42
-0.37556530895749796
10
30.901866669490808
20
-119.72456753466601
42
0.93527405150249987
10
30.815200055840002
20
-118.43037121981
10
30.16479977725
20
-118.43037121981
42
-0.41421356237309503
10
30.064799777250002
20
-118.33037121981
10
30.064799777247309
20
-117.68037121980994
42
1.0233719501943777
10
28.565200000000001
20
-117.68037121981001
10
28.565199999999997
20
-117.83037121981002
42
-0.41421356237309503
10
28.465199999999999
20
-117.93037121981001
10
6.8500000000000005
20
-117.93037121981001
42
-0.41421356237309503
10
6.75
20
-117.83037121981002
10
6.75
20
-116.44686095858
42
0.41421356237309503
10
5.25
20
-114.94686095858
10
-5.25
20
-114.94686095858
42
0.41421356237309503
10
-6.75
20
-116.44686095858
10
-6.7500000000000027
20
-117.83037121981002
42
-0.41421356237309503
10
-6.8500000000000005
20
-117.93037121981001
10
-28.465199999958003
20
-117.93037121981001
42
-0.41421356237309503
10
-28.565199999958004
20
-117.83037121981002
10
-28.565199999957727
20
-117.68037121981001
42
0.99999352358477067
10
-30.065199999926001
20
-117.68037121981001
10
-30.065199999926001
20
-118.33037121981
42
-0.41421356237309503
10
-30.165199999925999
20
-118.43037121981
10
-30.815200000000004
20
-118.43037121980826
42
0.93523207511477968
10
-30.901917859128712
20
-119.72456020212788
42
-0.37554118182835072
10
-30.815259572014
20
-119.82366619941001
10
-30.815259572014021
20
-119.83037121670002
42
-0.41421356237309503
10
-30.915259572014001
20
-119.9303712167
10
-64.215199999999996
20
-119.93037121670002
42
-0.41421356237309503
10
-64.315200000000004
20
-119.83037121670002
10
-64.315199999994121
20
-119.82367465717002
42
-0.37556530083189443
10
-64.228533333332507
20
-119.7245675321937
42
0.93527406310983152
10
-64.315200000000004
20
-118.43037121981
10
-64.965200000034997
20
-118.43037121981001
42
-0.41421356237309503
10
-65.06520000003502
20
-118.33037121981
10
-65.065200000034167
20
-117.68037121981001
42
1.0000116815046833
10
-66.565199999932005
20
-117.68037121981001
10
-66.565199999932005
20
-117.83037121981002
42
-0.41421356237309503
10
-66.665199999932
20
-117.93037121981001
10
-112.66853902267002
20
-117.93037121981
42
-0.41421356237309503
10
-112.76853902267
20
-117.83037121981002
10
-112.76853902266262
20
-117.68037121981001
42
1.0000118463011929
10
-114.26853902256001
20
-117.68037121981001
10
-114.26853902256001
20
-118.33037121981
42
-0.41421356237309503
10
-114.36853902256001
20
-118.43037121981
10
-115.01853902261001
20
-118.43037121981001
42
0.93527406311484385
10
-115.10520568926984
20
-119.7245675321888
42
-0.37556530081208911
10
-115.01853902261001
20
-119.82367465717002
10
-115.01853902261001
20
-119.83037121981
42
-0.41421356237309503
10
-115.11853902261001
20
-119.93037121981001
10
-148.41853902260999
20
-119.93037121981003
42
-0.41421356237309503
10
-148.51853902261001
20
-119.83037121981
10
-148.51853902260314
20
-119.82367485254001
42
-0.37556585367993683
10
-148.43187216386943
20
-119.72456770172442
42
0.93527497143101168
10
-148.51853758207
20
-118.43037122138
10
-149.16853902263
20
-118.43037122138001
42
-0.41421356237309503
10
-149.26853902262999
20
-118.33037122138002
10
-149.26853902262732
20
-117.68037122138
42
1.0000099755202376
10
-150.76853902254999
20
-117.68037121981001
10
-150.76853902255002
20
-117.83037121981002
42
-0.41421356237309503
10
-150.86853902255001
20
-117.93037121981001
10
-160.72145399998999
20
-117.93037121981007
42
-0.41421356237309503
10
-160.82145399999004
20
-117.83037121981002
10
-160.82145399999004
20
-117.68036373899001
42
0.99999999999999989
10
-162.32145399999001
20
-117.68036373899001
10
-162.32145400000371
20
-118.62918759121001
42
-0.051027070644339798
10
-162.35668147562745
20
-118.97347299909421
42
-1.0000002062075424
10
-162.99321179134739
20
-118.84183274244847
42
1.2279647118978518
10
-165.04969626751023
20
-118.84183274841929
42
-1.00000197586727
10
-165.68622669845143
20
-118.97347215736231
42
-0.051026943917131626
10
-165.72145399999999
20
-118.62918759121001
10
-165.72145399999997
20
-117.68036373899001
42
0.40270161967971319
10
-166.44186400000007
20
-116.93094767833009
42
-0.40270511617887883
10
-169.32353902260999
20
-113.93328100000002
10
-169.32353902261011
20
-26.482461387851004
42
-0.4142139051856118
10
-163.323532
20
-20.482461387855004
10
-150.86800493733
20
-20.482461387851004
42
-0.41421356237309503
10
-150.76800493733001
20
-20.582461387851005
10
-150.76800493732611
20
-20.732424188917101
42
1.0270487711748844
10
-149.26853902261001
20
-20.732424188917001
10
-149.26853902260999
20
-20.082424188917003
42
-0.41421356237309503
10
-149.16853902260999
20
-19.982424188917001
10
-148.51853902261001
20
-19.982424188916852
42
0.93015618641305153
10
-148.43237843707004
20
-18.688690069431257
42
-0.3741088299609171
10
-148.51853902379
20
-18.589652346112999
10
-148.51853902379
20
-18.582446353076001
42
-0.41421356237309503
10
-148.41853902379
20
-18.482446353076
10
-115.11853907522001
20
-18.482446353076007
42
-0.41421356237309503
10
-115.01853907522002
20
-18.582446353076001
10
-115.01853907522005
20
-18.589142918086001
42
-0.37556529404853661
10
-115.10520573953002
20
-18.688250042751029
42
0.93527405197650182
10
-115.01853905756001
20
-19.982446353076
10
-114.36853905756001
20
-19.982446353076003
42
-0.41421356237309503
10
-114.26853905756002
20
-20.082446353076001
10
-114.26853905756113
20
-20.732446353076
42
0.93724578689293425
10
-112.77465865488904
20
-20.826804745798132
42
-0.13428352523253007
10
-112.67318834318716
20
-20.583289863645224
42
0.16697158398422371
10
-112.56763774277002
20
-20.276028295646999
10
-112.56763790713134
20
-19.830441836279999
42
-0.05102690792903837
10
-112.53241081256668
20
-19.486157442582314
42
-1.000002466156473
10
-111.89587970349292
20
-19.617795486185067
42
1.2279661978500898
10
-109.83939578894001
20
-19.617795452877004
10
-109.83706751058997
20
-19.617795452877004
42
-0.99999999999999989
10
-109.22407116351002
20
-19.401611553215005
10
-109.22407116350431
20
-19.396058480791492
42
-0.056781596909478649
10
-109.16848121218001
20
-19.776896672559001
10
-109.16848121217998
20
-20.731182669386001
42
0.99999999999999989
10
-107.66848121218001
20
-20.731182669386001
10
-107.66848121218001
20
-20.582461387851005
42
-0.41421356237309503
10
-107.56848121218
20
-20.482461387851
10
-94.747402681599993
20
-20.482461387851
42
0.05240778034225297
10
-94.435535139173993
20
-20.449682787634003
10
-66.084965005840019
20
-14.423582953511939
42
-0.41421356235814694
10
-65.966359076361002
20
-14.500606543997002
10
-65.935172322109125
20
-14.647328683979024
42
0.99999387898246583
10
-64.462007056557994
20
-14.364867889728002
10
-64.596903599442598
20
-13.728978811792123
42
-0.41409639749950378
10
-64.519871698927005
20
-13.610412014357001
10
-63.884036636217076
20
-13.475261099635663
42
0.93527289795603719
10
-64.068341545839019
20
-12.191327056822043
42
-0.3755647646222196
10
-64.173719679841
20
-12.112404658551002
10
-64.175112012534058
20
-12.105854248011799
42
-0.41421356237250501
10
-64.098088420709004
20
-11.987248319399002
10
-31.525773267578003
20
-5.0637892442630008
42
-0.4142135623730957
10
-31.407167338965003
20
-5.1408128360880001
10
-31.40576342189798
20
-5.1474177468219953
42
-0.37540578366962257
10
-31.469878028407141
20
-5.2623593248796023
42
0.93471173027329468
10
-31.116091959315
20
-6.5102194146570005
10
-30.479435155686044
20
-6.3748938606848267
42
-0.41162682656283156
10
-30.36101683739
20
-6.451053623191001
10
-30.220068764271382
20
-7.0864893255620887
42
0.99999999999999989
10
-28.75937353342
20
-6.7453596690240003
10
-28.78932087559604
20
-6.598379545549804
42
-0.41421356237249535
10
-28.711299021399004
20
-6.480427901783
10
-23.338958464081841
20
-5.385808322225766
42
-0.41421356236963658
10
-23.221006820315001
20
-5.4638301764220012
10
-23.186803402363935
20
-5.6316989162759867
42
0.99999999999999989
10
-21.717002167619999
20
-5.332225494507
10
-21.92492273270858
20
-4.3117613027549142
42
-0.051026790854995938
10
-21.959140699602337
20
-3.9673759935446555
42
-1.0000024628453892
10
-21.309143491375554
20
-3.9692810650900014
42
1.2279652301485795
10
-19.294061438570026
20
-3.5587061496267962
42
-1.0000024629017372
10
-18.696626997188798
20
-3.3026356744619143
42
-0.051026790831082913
10
-18.593373267291
20
-3.6329548800790001
10
-18.385452702207218
20
-4.653419071804044
42
1.0000000074505806
10
-16.915651467458002
20
-4.3539456500620002
10
-16.949854885404804
20
-4.1860769102079605
42
-0.41421356237596307
10
-16.871833031207004
20
-4.068125266441001
10
-13.02799331261609
20
-3.2849392096815593
42
-0.27817927792608599
10
-12.541439885453048
20
-3.4579491203300385
42
0.2781792779260322
10
-11.568333031127001
20
-3.8039689416270006
10
-7.7624991295699486
20
-3.0285266068122545
42
0.27817927792657327
10
-7.0023511529464457
20
-2.3293544389581626
42
-0.27817927792625557
10
-6.6222771646350012
20
-1.9797683550309999
10
-0.52356654211490772
20
-0.737150172836461
42
-0.10084039511190999
10
0.67433697556099959
20
-0.73715217584799997
10
6.6671343307221349
20
-1.9582113005713362
42
-0.27817927792602903
10
7.0472071499477265
20
-2.3077986555387877
42
0.27817927792603458
10
7.807352788398001
20
-3.0069733654720006
10
11.534558350879941
20
-3.7664080821953001
42
0.27817927792435587
10
12.507666362359435
20
-3.4203915151585362
42
-0.27817927792184377
10
12.994220368090001
20
-3.2473832316409998
10
16.929628251550824
20
-4.0492400976079646
42
-0.41421356237363249
10
17.007649711300001
20
-4.1671920022990001
10
16.97644344829088
20
-4.3203482308731793
42
0.99999999999999989
10
18.446243681529999
20
-4.6198265679420008
10
18.644386399417318
20
-3.6473682064544546
42
-0.05102680257542988
10
18.747641265342711
20
-3.3170492729236618
42
-1.0000024272232653
10
19.345074796752677
20
-3.5731218711411463
42
1.2279651970790435
10
21.360155498739466
20
-3.9837034724166784
42
-1.000002463262335
10
22.010152713348244
20
-3.9818005770850058
42
-0.051026790653043823
10
21.975933594760001
20
-4.3261857704790003
10
21.777790887960876
20
-5.2986440775371788
42
0.99999999999999989
10
23.247591121200003
20
-5.5981224146060002
10
23.278797373114031
20
-5.444966240462823
42
-0.41421356237257589
10
23.396749277800005
20
-5.3669447807170005
10
28.868880246610622
20
-6.4819158126349397
42
-0.41421356235926537
10
28.946901706360002
20
-6.5998677173200004
10
28.916953872654343
20
-6.7468477406497982
42
1.000006004261526
10
30.384187235959999
20
-7.0586589936999999
10
30.524870466096111
20
-6.4232055475071395
42
-0.41174471470336071
10
30.643297511170005
20
-6.347006423471
10
31.279915206780018
20
-6.4823236919499223
42
0.93521558659274062
10
31.633760447917815
20
-5.2344315943091271
42
-0.37554885830839418
10
31.56959873397
20
-5.1194730570480012
10
31.570992232874442
20
-5.1129171939129421
42
-0.41421356236693241
10
31.689598242630002
20
-5.0358937270390003
10
64.261906101760559
20
-11.959387117721398
42
-0.41421356235345297
10
64.338929568629993
20
-12.077993127484001
10
64.337537264625212
20
-12.08454336913411
42
-0.37556525292209358
10
64.232158876790052
20
-12.163465643439189
42
0.93527421429988589
10
64.047852202480001
20
-13.447399556165999
10
64.683648180369119
20
-13.582542163154121
42
-0.41421345036248619
10
64.760671779310002
20
-13.701148054895
10
64.62552941548951
20
-14.336944084466896
42
0.99999574012699299
10
66.092633931609996
20
-14.649361015414
10
66.123937327045354
20
-14.502089841765017
42
-0.41421356238210905
10
66.242543226750001
20
-14.425066205418
10
94.820822321480051
20
-20.499555524905759
42
0.052407683410011688
10
95.132689296579997
20
-20.532334004534004
10
107.219821
20
-20.532334004533986
42
-0.41421356237309503
10
107.31982100000002
20
-20.632334004534002
10
107.31982100000002
20
-20.781070419001999
42
0.99999999999999989
10
108.81982100000002
20
-20.781070419001999
10
108.81982100005082
20
-19.830454
42
-0.051026790958960316
10
108.85504809154679
20
-19.486170449795313
42
-1.0000024607596001
10
109.49157887852421
20
-19.617808427220005
42
1.227965229603289
10
111.54806312139263
20
-19.617808427216794
42
-1.0000024626312545
10
112.18459390858277
20
-19.486170449929887
42
-0.051026790934125411
10
112.219821
20
-19.830454
10
112.219821
20
-20.326222211457999
42
0.16673820364733491
10
112.32509269727827
20
-20.633125399792167
42
-0.13413666313823347
10
112.42630519039018
20
-20.876446145149444
42
0.93739441808508994
10
113.92021719300001
20
-20.782345115737005
10
113.92021719300001
20
-20.132345115736999
42
-0.41421356237309503
10
114.02021719300001
20
-20.032345115737002
10
114.670217193
20
-20.032345115737424
42
0.93543787458785843
10
114.75690001820077
20
-18.738134693100314
42
-0.37561181051531128
10
114.670217193
20
-18.639025395577999
10
114.670217193
20
-18.632345138333001
42
-0.41421356237309503
10
114.77021719299999
20
-18.532345138333
10
148.07021719299999
20
-18.532345138332985
42
-0.41421356237309503
10
148.17021719300001
20
-18.632345138333001
10
148.17021719300047
20
-18.639029671301
42
-0.37559961525169749
10
148.08353860470083
20
-18.738138399425178
42
0.93522501220481213
10
148.16998156490001
20
-20.032345115737002
10
148.82014955810001
20
-20.031905375450371
42
-0.41441167430107162
10
148.92021719300001
20
-20.131905352578002
10
148.92021719300001
20
-20.781837694834003
42
0.99999993294477685
10
150.42021719300004
20
-20.781837878423005
10
150.42021719300001
20
-20.631837694834001
42
-0.41421356237309503
10
150.52021719300001
20
-20.531837694834
10
161.80633700000001
20
-20.531837694833996
42
-0.41421356237309503
10
164.80633700000001
20
-23.531837694834003
0
LWPOLYLINE
5
101
100
AcDbEntity
8
0
100
AcDbPolyline
90
4
70
1
43
0.0
10
-146.26853902261001
20
-19.982446353076003
42
0.99999999999999989
10
-146.26853902261001
20
-21.482446353076003
10
-117.26853902261
20
-21.482446353076003
42
0.99999999999999989
10
-117.26853902261
20
-19.982446353076
0
LWPOLYLINE
5
102
100
AcDbEntity
8
0
100
AcDbPolyline
90
8
70
1
43
0.0
10
-144.35938661028999
20
-23.442835377834999
10
-144.35938661087999
20
-36.442835377835998
42
-0.41421356237134949
10
-144.8593866109
20
-36.942835377812997
10
-157.8593866109
20
-36.942835377230011
42
-0.4142135623689952
10
-158.35938661087002
20
-36.442835377206997
10
-158.35938661029002
20
-23.442835377207004
42
-0.41421356237132867
10
-157.85938661027001
20
-22.942835377230004
10
-144.85938661027001
20
-22.942835377811992
42
-0.4142135623748614
0
LWPOLYLINE
5
103
100
AcDbEntity
8
0
100
AcDbPolyline
90
14
70
1
43
0.0
10
-166.80253661174004
20
-55.540835376827005
42
0.41421356237486917
10
-166.30253661175999
20
-56.040835376849998
10
-153.30253661172003
20
-56.040835377411
42
0.41421356237309503
10
-152.80253661172
20
-55.540835377411
10
-152.80253661172
20
-55.040835079225005
10
-152.07178659812001
20
-55.040835079234
42
0.41421355778814384
10
-151.57178661168001
20
-54.540835073501
10
-151.57178661107
20
-40.540835079278999
42
0.41421356237425527
10
-152.07178661104999
20
-40.040835079257
10
-158.07178661104004
20
-40.040835078985999
42
0.41421356237776197
10
-158.57178661107
20
-40.540835078964001
10
-158.57178661114
20
-42.040835377196998
10
-166.30253661112999
20
-42.040835376850005
42
0.41421356237720525
10
-166.80253661116001
20
-42.540835376826998
0
LWPOLYLINE
5
104
100
AcDbEntity
8
0
100
AcDbPolyline
90
14
70
1
43
0.0
10
-127.10878661176
20
-56.04083537860901
42
0.41421356237720008
10
-126.60878661173
20
-55.540835378632003
10
-126.60878661114999
20
-42.540835378631002
42
0.41421356237426565
10
-127.10878661113
20
-42.040835378609003
10
-127.69578661113999
20
-42.040835378582997
10
-127.69578661105999
20
-40.540835080353006
42
0.41421356237486401
10
-128.19578661104001
20
-40.040835080329998
10
-134.19578661104001
20
-40.040835080058997
42
0.41421356237718443
10
-134.69578661106999
20
-40.540835080035997
10
-134.69578661113999
20
-42.040835378268
10
-149.63378661113003
20
-42.040835377598
42
0.41421356237717927
10
-150.13378661116002
20
-42.540835377575007
10
-150.13378661173999
20
-55.540835377576997
42
0.41421356237426049
10
-149.63378661176
20
-56.040835377599009
0
LWPOLYLINE
5
105
100
AcDbEntity
8
0
100
AcDbPolyline
90
8
70
1
43
0.0
10
-100.91378661176002
20
-56.040835379786003
10
-113.91378661176
20
-56.040835379203017
42
-0.41421356237485357
10
-114.41378661174001
20
-55.540835379180002
10
-114.41378661114999
20
-42.540835379180002
42
-0.4142135623719036
10
-113.91378661113004
20
-42.040835379202008
10
-100.91378661113001
20
-42.040835379786003
42
-0.41421356237484841
10
-100.41378661115002
20
-42.540835379809003
10
-100.41378661174001
20
-55.54083537980901
42
-0.41421356237134688
0
LWPOLYLINE
5
106
100
AcDbEntity
8
0
100
AcDbPolyline
90
8
70
1
43
0.0
10
-95.363786611745013
20
-55.540835380034999
10
-95.363786611165011
20
-42.540835380033997
42
-0.41421356237309503
10
-94.863786611142004
20
-42.040835380057004
10
-81.863786611142018
20
-42.04083538063999
42
-0.41421356237368295
10
-81.363786611163988
20
-42.540835380662998
10
-81.363786611745013
20
-55.540835380664006
42
-0.41421356237310542
10
-81.86378661176802
20
-56.040835380640999
10
-94.863786611768006
20
-56.040835380058013
42
-0.41421356237309503
0
LWPOLYLINE
5
107
100
AcDbEntity
8
0
100
AcDbPolyline
90
4
70
1
43
0.0
10
-61.683204649887166
20
-13.00745925275425
42
0.99999999999999989
10
-61.371337113654093
20
-14.474680653853593
10
-33.005056692401041
20
-8.4452416200137943
42
0.99999999999999989
10
-33.316924228634001
20
-6.9780202189149998
0
LWPOLYLINE
5
108
100
AcDbEntity
8
0
100
AcDbPolyline
90
8
70
1
43
0.0
10
-67.178179395314999
20
-19.677494140806001
10
-64.47532741525248
20
-32.393412950464885
42
-0.41421356237309687
10
-64.860445370236889
20
-32.986442596223526
10
-77.57636417989589
20
-35.689294576285533
42
-0.41421356237321005
10
-78.169393825654566
20
-35.304176621300911
10
-80.872245805716574
20
-22.58825781164191
42
-0.41421356237309709
10
-80.487127850731909
20
-21.995228165883425
10
-67.771209041072808
20
-19.292376185821958
42
-0.41421356237297974
0
LWPOLYLINE
5
109
100
AcDbEntity
8
0
100
AcDbPolyline
90
8
70
1
43
0.0
10
-39.135264586633895
20
-31.092478773406533
42
0.41421356237309503
10
-38.750146631649471
20
-30.499449127647893
10
-41.660910302486435
20
-16.805382717243091
42
0.41421356237321005
10
-42.253939948244998
20
-16.420264762259002
10
-48.122825552703119
20
-17.667734906902471
42
0.41421356237297308
10
-48.507943507688005
20
-18.260764552661001
10
-45.597179836851531
20
-31.954830963066119
42
0.41421356237309326
10
-45.004150191093004
20
-32.339948918049998
0
LWPOLYLINE
5
110
100
AcDbEntity
8
0
100
AcDbPolyline
90
8
70
1
43
0.0
10
-26.768179394997432
20
-12.617494142619092
42
0.41421356237321311
10
-27.361209040756108
20
-12.23237618763447
10
-40.077127850417909
20
-14.935228167697428
42
0.41421356237321855
10
-40.462245805402006
20
-15.528257813456001
10
-37.759393825339572
20
-28.244176623117916
42
0.41421356237321261
10
-37.166364179581002
20
-28.629294578102002
10
-24.450445369919095
20
-25.926442598039579
42
0.41421356237321827
10
-24.065327414934998
20
-25.333412952281002
0
LWPOLYLINE
5
111
100
AcDbEntity
8
0
100
AcDbPolyline
90
8
70
1
43
0.0
10
-15.781012471293092
20
-26.128379244489572
42
0.41421356237321566
10
-15.39589451630847
20
-25.535349598730889
10
-18.306658187145427
20
-11.841283188326093
42
0.41421356237321855
10
-18.899687832904
20
-11.456165233342002
10
-24.768573437359915
20
-12.70363537798543
42
0.41421356237309093
10
-25.153691392345003
20
-13.296665023744001
10
-22.242927721508533
20
-26.990731434149112
42
0.41421356237309631
10
-21.649898075750002
20
-27.375849389133002
0
LWPOLYLINE
5
112
100
AcDbEntity
8
0
100
AcDbPolyline
90
8
70
1
43
0.0
10
-75.677127851630999
20
-41.985228166100008
10
-62.961209041971912
20
-39.282376186038434
42
-0.41421356237309398
10
-62.368179396213428
20
-39.667494141023091
10
-59.665327416151477
20
-52.38341295067989
42
-0.41421356237321516
10
-60.050445371136092
20
-52.976442596438574
10
-72.76636418079508
20
-55.679294576500581
42
-0.41421356237309914
10
-73.359393826553571
20
-55.294176621515916
10
-76.062245806616005
20
-42.578257811858997
42
-0.41421356237308887
0
LWPOLYLINE
5
113
100
AcDbEntity
8
0
100
AcDbPolyline
90
8
70
1
43
0.0
10
-54.725682032398581
20
-51.333458912276917
42
0.41421356237321749
10
-54.132652386639883
20
-51.718576867261525
10
-41.416733576976895
20
-49.01572488719853
42
0.4142135623730927
10
-41.031615621992998
20
-48.42269524144001
10
-43.734467602055432
20
-35.706776431778103
42
0.41421356237322021
10
-44.327497247814009
20
-35.321658476793999
10
-57.043416057476918
20
-38.024510456856426
42
0.41421356237321766
10
-57.428534012461007
20
-38.617540102615003
0
LWPOLYLINE
5
114
100
AcDbEntity
8
0
100
AcDbPolyline
90
8
70
1
43
0.0
10
-22.783021782822001
20
-45.055007177957009
10
-35.498940592481091
20
-47.757859158018576
42
-0.41421356237309398
10
-36.091970238239568
20
-47.372741203033911
10
-38.794822218301576
20
-34.65682239337491
42
-0.41421356237309148
10
-38.409704263316911
20
-34.063792747616432
10
-25.69378545365791
20
-31.360940767554428
42
-0.41421356237297718
10
-25.100755807899468
20
-31.746058722538891
10
-22.397903827837041
20
-44.461977532197793
42
-0.41421356237321727
0
LWPOLYLINE
5
115
100
AcDbEntity
8
0
100
AcDbPolyline
90
8
70
1
43
0.0
10
-17.458258444084574
20
-43.41202349379391
42
0.41421356237321399
10
-16.865228798325891
20
-43.797141448778525
10
-4.1493099886630898
20
-41.094289468715573
42
0.41421356237321683
10
-3.7641920336790005
20
-40.501259822957003
10
-6.4670440137414271
20
-27.785341013294094
42
0.41421356237321855
10
-7.0600736595000013
20
-27.400223058310004
10
-19.775992469163114
20
-30.10307503837247
42
0.41421356237309453
10
-20.161110424147001
20
-30.696104684131001
0
LWPOLYLINE
5
116
100
AcDbEntity
8
0
100
AcDbPolyline
90
8
70
1
43
0.0
10
-28.143021783746089
20
-65.665007177716575
42
0.41421356237321749
10
-27.757903828761474
20
-65.071977531957884
10
-30.46075580882443
20
-52.356058722295096
42
0.41421356237321516
10
-31.053785454583004
20
-51.970940767311006
10
-43.769704264245917
20
-54.673792747373433
42
0.41421356237321627
10
-44.154822219229999
20
-55.266822393132003
10
-41.451970239167572
20
-67.982741202794912
42
0.41421356237321738
10
-40.85894059340901
20
-68.367859157778994
0
LWPOLYLINE
5
117
100
AcDbEntity
8
0
100
AcDbPolyline
90
8
70
1
43
0.0
10
-22.818258445007999
20
-64.022023493551998
10
-25.521110425070532
20
-51.306104683893111
42
-0.41421356237309326
10
-25.135992470086109
20
-50.713075038134477
10
-12.420073660428114
20
-48.010223058072476
42
-0.41421356237321627
10
-11.827044014669429
20
-48.395341013057092
10
-9.1241920346074288
20
-61.111259822716093
42
-0.41421356237309453
10
-9.5093099895920901
20
-61.704289468474578
10
-22.225228799250203
20
-64.407141448536038
42
-0.41421356237297841
0
LWPOLYLINE
5
118
100
AcDbEntity
8
0
100
AcDbPolyline
90
8
70
1
43
0.0
10
-152.16178661205001
20
-62.590835675717003
42
0.41421356237482759
10
-152.66178661202997
20
-62.090835675694009
10
-158.66178661201999
20
-62.090835675426
42
0.41421356237721046
10
-159.16178661205004
20
-62.590835675403007
10
-159.16178661268003
20
-76.590835675403
42
0.41421356237485879
10
-158.66178661270001
20
-77.090835675426007
10
-152.66178661270001
20
-77.090835675693995
42
0.41421356237134688
10
-152.16178661268
20
-76.590835675717003
0
LWPOLYLINE
5
119
100
AcDbEntity
8
0
100
AcDbPolyline
90
8
70
1
43
0.0
10
-137.22378661261999
20
-75.090835378156996
10
-150.22378661261999
20
-75.090835377573015
42
-0.41421356237486917
10
-150.72378661260001
20
-74.590835377549993
10
-150.72378661201
20
-61.590835377550007
42
-0.41421356237134688
10
-150.22378661198999
20
-61.090835377573008
10
-137.22378661198999
20
-61.090835378153997
42
-0.41421356237485357
10
-136.72378661201
20
-61.590835378177005
10
-136.72378661260001
20
-74.590835378179008
42
-0.4142135623719036
0
LWPOLYLINE
5
120
100
AcDbEntity
8
0
100
AcDbPolyline
90
8
70
1
43
0.0
10
-134.78578661201999
20
-62.090835676495999
10
-128.78578661202999
20
-62.090835676765003
42
-0.41421356237484841
10
-128.28578661205
20
-62.590835676788004
10
-128.28578661268
20
-76.590835676788998
42
-0.41421356237192442
10
-128.78578661270001
20
-77.090835676767
10
-134.78578661269
20
-77.090835676496013
42
-0.41421356237426565
10
-135.28578661267002
20
-76.590835676474001
10
-135.28578661204
20
-62.590835676474008
42
-0.41421356237192442
0
LWPOLYLINE
5
121
100
AcDbEntity
8
0
100
AcDbPolyline
90
8
70
1
43
0.0
10
-139.60378661286001
20
-80.640835378047996
42
0.41421356237484319
10
-140.10378661284
20
-80.140835378025002
10
-153.10378661284
20
-80.140835377442997
42
0.41421356237134688
10
-153.60378661286001
20
-80.640835377420004
10
-153.60378661345004
20
-93.640835377418995
42
0.41421356237427087
10
-153.10378661346999
20
-94.140835377440993
10
-140.10378661346999
20
-94.140835378025997
42
0.41421356237132606
10
-139.60378661345001
20
-93.640835378049005
0
LWPOLYLINE
5
122
100
AcDbEntity
8
0
100
AcDbPolyline
90
8
70
1
43
0.0
10
-105.77378661200999
20
-61.590835379567004
42
0.41421356237426565
10
-106.27378661199
20
-61.090835379545005
10
-119.27378661199
20
-61.09083537896101
42
0.4142135623713365
10
-119.77378661201001
20
-61.590835378938003
10
-119.77378661260002
20
-74.59083537893801
42
0.41421356237485357
10
-119.27378661262
20
-75.090835378961003
10
-106.27378661262
20
-75.090835379544998
42
0.41421356237132606
10
-105.77378661260001
20
-74.590835379568006
0
LWPOLYLINE
5
123
100
AcDbEntity
8
0
100
AcDbPolyline
90
8
70
1
43
0.0
10
-100.72378661260001
20
-74.590835379794001
10
-100.72378661201
20
-61.590835379794001
42
-0.41421356237134688
10
-100.22378661198999
20
-61.090835379817008
10
-87.223786611994996
20
-61.090835380399
42
-0.41421356237308982
10
-86.723786612017989
20
-61.590835380422
10
-86.723786612598019
20
-74.590835380423002
42
-0.41421356237367774
10
-87.223786612620998
20
-75.090835380401003
10
-100.22378661261999
20
-75.090835379817008
42
-0.41421356237483797
0
LWPOLYLINE
5
124
100
AcDbEntity
8
0
100
AcDbPolyline
90
8
70
1
43
0.0
10
-115.78378661286001
20
-80.640835379118002
10
-115.78378661345
20
-93.640835379118016
42
-0.41421356237190876
10
-116.28378661347
20
-94.140835379096018
10
-129.28378661347
20
-94.140835378513003
42
-0.41421356237485357
10
-129.78378661345002
20
-93.640835378489996
10
-129.78378661286004
20
-80.640835378489001
42
-0.41421356237192958
10
-129.28378661284
20
-80.140835378510999
10
-116.28378661284002
20
-80.140835379095009
42
-0.41421356237486401
0
LWPOLYLINE
5
125
100
AcDbEntity
8
0
100
AcDbPolyline
90
8
70
1
43
0.0
10
-97.233786613479012
20
-94.140835379951
10
-110.23378661347002
20
-94.140835379368013
42
-0.41421356237483276
10
-110.73378661345001
20
-93.64083537934502
10
-110.73378661286002
20
-80.640835379343997
42
-0.4142135623719192
10
-110.23378661284001
20
-80.140835379365996
10
-97.233786612849002
20
-80.140835379950005
42
-0.41421356237367774
10
-96.733786612871
20
-80.640835379972998
10
-96.733786613456999
20
-93.640835379974007
42
-0.41421356237251233
0
LWPOLYLINE
5
126
100
AcDbEntity
8
0
100
AcDbPolyline
90
8
70
1
43
0.0
10
-78.603786613523994
20
-95.200835380786998
10
-91.603786613523994
20
-95.200835380204012
42
-0.41421356237309503
10
-92.103786613501001
20
-94.700835380181005
10
-92.103786612920999
20
-81.700835380181019
42
-0.41421356237367774
10
-91.603786612898006
20
-81.200835380202989
10
-78.603786612899
20
-81.200835380786003
42
-0.41421356237368295
10
-78.103786612920999
20
-81.700835380809011
10
-78.103786613501015
20
-94.700835380808996
42
-0.41421356237367774
0
LWPOLYLINE
5
127
100
AcDbEntity
8
0
100
AcDbPolyline
90
20
70
1
43
0.0
10
-128.7307866136
20
-97.190835080305007
42
0.41421356237718443
10
-129.23078661363002
20
-97.690835080282014
10
-129.23078661369999
20
-99.190835378513995
10
-146.10678661371
20
-99.190835377756997
10
-146.10678661362999
20
-97.690835079526011
42
0.41421356237486401
10
-146.60678661361001
20
-97.190835079503017
10
-152.60678661360001
20
-97.190835079232002
42
0.41421356237718443
10
-153.10678661362999
20
-97.690835079208995
10
-153.1067866137
20
-99.190835377441999
10
-153.69378661369001
20
-99.190835377414004
42
0.41421356237777757
10
-154.19378661372002
20
-99.69083537739202
10
-154.1937866143
20
-112.69083537739
42
0.4142135623730846
10
-153.69378661432
20
-113.19083537741001
10
-121.64378661433
20
-113.19083537885001
42
0.4142135623789534
10
-121.14378661430001
20
-112.69083537887001
10
-121.14378661372
20
-99.690835378879001
42
0.41421356237427087
10
-121.64378661370002
20
-99.190835378857003
10
-122.23078661370002
20
-99.190835378827998
10
-122.23078661363002
20
-97.690835080594013
42
0.41421356237367774
10
-122.73078661360999
20
-97.190835080573009
0
LWPOLYLINE
5
128
100
AcDbEntity
8
0
100
AcDbPolyline
90
4
70
1
43
0.0
10
-146.26853902261001
20
-116.93037121981001
42
0.99999999999999989
10
-146.26853902261001
20
-118.43037121981
10
-117.26853902261
20
-118.43037121981
42
0.99999999999999989
10
-117.26853902261
20
-116.93037121981
0
LWPOLYLINE
5
129
100
AcDbEntity
8
0
100
AcDbPolyline
90
8
70
1
43
0.0
10
-116.09378661431002
20
-112.69083537909
10
-116.09378661372003
20
-99.690835379104996
42
-0.4142135623719192
10
-115.59378661370002
20
-99.190835379126995
10
-102.5937866137
20
-99.190835379711018
42
-0.41421356237484319
10
-102.09378661372
20
-99.690835379734011
10
-102.09378661431001
20
-112.69083537972001
42
-0.41421356237309503
10
-102.59378661433001
20
-113.19083537970002
10
-115.59378661433001
20
-113.19083537911001
42
-0.41421356237309503
0
LWPOLYLINE
5
130
100
AcDbEntity
8
0
100
AcDbPolyline
90
8
70
1
43
0.0
10
-96.96378661380102
20
-101.33083537995
42
0.41421356237483276
10
-97.463786613824013
20
-101.83083537992999
10
-97.463786614408008
20
-114.83083537992999
42
0.4142135623713365
10
-96.963786614431001
20
-115.33083537995
10
-83.963786614431001
20
-115.33083538054001
42
0.41421356237485357
10
-83.463786614408008
20
-114.83083538056
10
-83.463786613823999
20
-101.83083538056002
42
0.41421356237135726
10
-83.963786613801005
20
-101.33083538054001
0
LWPOLYLINE
5
131
100
AcDbEntity
8
0
100
AcDbPolyline
90
8
70
1
43
0.0
10
-65.410445372059996
20
-73.586442596200001
10
-78.126364181720106
20
-76.289294576261568
42
-0.41421356237308382
10
-78.719393827478569
20
-75.904176621276918
10
-81.422245807540591
20
-63.188257811617916
42
-0.41421356237308893
10
-81.03712785255594
20
-62.595228165859432
10
-68.321209042896115
20
-59.892376185796479
42
-0.41421356237321516
10
-67.728179397137438
20
-60.277494140781094
10
-65.025327417075005
20
-72.993412950440998
42
-0.41421356237308998
0
LWPOLYLINE
5
132
100
AcDbEntity
8
0
100
AcDbPolyline
90
8
70
1
43
0.0
10
-49.094467602983009
20
-56.316776431539999
10
-46.391615622921435
20
-69.032695241198084
42
-0.41421356237309914
10
-46.776733577906093
20
-69.625724886956576
10
-59.492652387565094
20
-72.328576867018569
42
-0.41421356237308893
10
-60.085682033323579
20
-71.943458912033918
10
-62.788534013385529
20
-59.227540102376118
42
-0.41421356237309381
10
-62.40341605840112
20
-58.634510456617477
10
-49.687497248742211
20
-55.93165847655505
42
-0.41421356237321727
0
LWPOLYLINE
5
133
100
AcDbEntity
8
0
100
AcDbPolyline
90
8
70
1
43
0.0
10
-70.099393828271999
20
-93.554176621664013
10
-72.802245808334533
20
-80.838257812005139
42
-0.41421356237322027
10
-72.417127853349911
20
-80.245228166246449
10
-59.701209043689914
20
-77.542376186184441
42
-0.41421356237309914
10
-59.108179397931437
20
-77.927494141169106
10
-56.405327417869429
20
-90.643412950828093
42
-0.41421356237309914
10
-56.790445372854094
20
-91.236442596586585
10
-69.506364182514218
20
-93.939294576648052
42
-0.41421356237297385
0
LWPOLYLINE
5
134
100
AcDbEntity
8
0
100
AcDbPolyline
90
8
70
1
43
0.0
10
-38.156733578695892
20
-87.275724887344538
42
0.41421356237297063
10
-37.771615623711426
20
-86.682695241586103
10
-40.474467603773476
20
-73.96677643192389
42
0.41421356237297668
10
-41.067497249532003
20
-73.581658476938998
10
-53.783416059195119
20
-76.284510457001474
42
0.4142135623730876
10
-54.168534014179002
20
-76.877540102759994
10
-51.465682034116575
20
-89.593458912422918
42
0.41421356237321005
10
-50.872652388358006
20
-89.978576867407
0
LWPOLYLINE
5
135
100
AcDbEntity
8
0
100
AcDbPolyline
90
8
70
1
43
0.0
10
-0.88930999038088743
20
-79.354289468862532
42
0.41421356237297957
10
-0.50419203539642965
20
-78.761259823104098
10
-3.2070440154594282
20
-66.045341013440094
42
0.41421356237321472
10
-3.8000736612179997
20
-65.660223058455998
10
-16.515992470881113
20
-68.363075038518474
42
0.41421356237309198
10
-16.901110425864999
20
-68.956104684276994
10
-14.198258445802574
20
-81.672023493940912
42
0.41421356237322271
10
-13.605228800043999
20
-82.057141448924995
0
LWPOLYLINE
5
136
100
AcDbEntity
8
0
100
AcDbPolyline
90
8
70
1
43
0.0
10
-32.831970239957528
20
-85.632741203183116
42
0.41421356237309148
10
-32.238940594198894
20
-86.017859158167539
10
-19.523021784535889
20
-83.315007178104537
42
0.41421356237309126
10
-19.137903829551998
20
-82.721977532346003
10
-21.840755809614429
20
-70.006058722683079
42
0.41421356237321005
10
-22.433785455373002
20
-69.620940767698997
10
-35.149704265036114
20
-72.323792747761473
42
0.41421356237309126
10
-35.534822220019997
20
-72.916822393519993
0
LWPOLYLINE
5
137
100
AcDbEntity
8
0
100
AcDbPolyline
90
8
70
1
43
0.0
10
-45.834467604700002
20
-94.576776431688003
10
-43.131615624641043
20
-107.29269524133022
42
-0.41421356237456308
10
-43.516733579624685
20
-107.88572488709148
10
-56.232652389283686
20
-110.5885768671515
42
-0.41421356237148632
10
-56.825682035041922
20
-110.20345891216999
10
-59.528534015101584
20
-97.487540102523909
42
-0.41421356237297263
10
-59.143416060117111
20
-96.894510456765474
10
-46.427497250458003
20
-94.191658476703992
42
-0.41421356237310636
0
LWPOLYLINE
5
138
100
AcDbEntity
8
0
100
AcDbPolyline
90
8
70
1
43
0.0
10
-62.15044537377868
20
-111.84644259634149
42
0.41421356237469614
10
-61.765327418795088
20
-111.25341295058001
10
-64.468179398857473
20
-98.537494140919904
42
0.41421356237298285
10
-65.061209044616007
20
-98.152376185934997
10
-77.777127854279314
20
-100.85522816598854
42
0.41421356237468526
10
-78.162245809262998
20
-101.44825781175001
10
-75.459393829198959
20
-114.1641766214198
42
0.41421356237161283
10
-74.866364183440993
20
-114.5492945764
0
LWPOLYLINE
5
139
100
AcDbEntity
8
0
100
AcDbPolyline
90
4
70
1
43
0.0
10
-62.065200000000004
20
-116.93037121981001
42
0.99999999999999989
10
-62.065200000000004
20
-118.43037121981
10
-33.065199999999997
20
-118.43037121981
42
0.99999999999999989
10
-33.065199999999997
20
-116.93037121981
0
LWPOLYLINE
5
140
100
AcDbEntity
8
0
100
AcDbPolyline
90
8
70
1
43
0.0
10
-24.883021785466003
20
-103.92500717785001
10
-37.598940595123679
20
-106.6278591579115
42
-0.41421356237160989
10
-38.191970240881957
20
-106.24274120292981
10
-40.894822220943581
20
-93.52682239327892
42
-0.41421356237297768
10
-40.509704265959115
20
-92.933792747520471
10
-27.793785456299915
20
-90.23094076745943
42
-0.41421356237239759
10
-27.200755810541676
20
-90.616058722442929
10
-24.497903830483519
20
-103.33197753209052
42
-0.4142135623745774
0
LWPOLYLINE
5
141
100
AcDbEntity
8
0
100
AcDbPolyline
90
8
70
1
43
0.0
10
-8.5670440163869994
20
-86.655341013202019
10
-5.8641920363254707
20
-99.371259822855905
42
-0.414213562373211
10
-6.2493099913100902
20
-99.964289468614567
10
-18.965228800969683
20
-102.6671414486715
42
-0.4142135623716206
10
-19.558258446727965
20
-102.28202349368979
10
-22.261110426789582
20
-89.566104684037924
42
-0.41421356237296958
10
-21.875992471805112
20
-88.973075038279475
10
-9.160073662144999
20
-86.270223058217994
42
-0.41421356237309986
0
LWPOLYLINE
5
142
100
AcDbEntity
8
0
100
AcDbPolyline
90
20
70
1
43
0.0
10
-30.691591514637715
20
-109.18004988253193
42
0.99999999999999989
10
-30.899503205410316
20
-108.20190228178853
10
-38.23561021098331
20
-109.76123996259852
42
0.41421356237469042
10
-38.620728165967002
20
-110.35426960836
10
-38.080653078738649
20
-112.89512312568036
42
-0.05102679073300613
10
-38.0435297986946
20
-113.23920737693042
42
-1.0000024632397992
10
-38.693519935317816
20
-113.24278819979
42
1.2279652313078149
10
-40.705065062769144
20
-113.6703553165588
42
-1.0000024632961382
10
-41.300317052246101
20
-113.93145887652048
42
-0.051026790591451675
10
-41.406354921263002
20
-113.60202287431001
10
-41.946430008495042
20
-111.06116935699022
42
0.41421356237040202
10
-42.539459654253008
20
-110.67605140200001
10
-49.875566659826276
20
-112.23538908280872
42
0.99999999999999989
10
-49.667654969052002
20
-113.21353668355002
10
-42.918436523922914
20
-111.77894601721516
42
-0.41421356236085338
10
-42.799830594772999
20
-111.85596960821002
10
-42.384502522006343
20
-113.80993456509009
42
0.99999999999999989
10
-37.102505477994001
20
-112.68721143491
10
-37.517833550755562
20
-110.73324647802905
42
-0.41421356237923163
10
-37.440809959763001
20
-110.61464054888
0
LWPOLYLINE
5
143
100
AcDbEntity
8
0
100
AcDbPolyline
90
8
70
1
43
0.0
10
26.712663875452542
20
-10.623087640620415
42
0.4142135623726948
10
26.327545920520087
20
-10.030057994828605
10
11.283635821400086
20
-6.8323761893726056
42
0.41421356237349849
10
10.690606175599999
20
-7.2174941443040019
10
7.9877541944018091
20
-19.93341295371296
42
0.41421356237321855
10
8.3728721493329985
20
-20.526442599507
10
23.41678224846012
20
-23.724124404962442
42
0.4142135623715838
10
24.009811894249999
20
-23.339006450032002
0
LWPOLYLINE
5
144
100
AcDbEntity
8
0
100
AcDbPolyline
90
4
70
1
43
0.0
10
33.48074647883022
20
-6.9501272300869861
42
0.99999999999999989
10
33.168878942609787
20
-8.4173486311890127
10
61.53515305415042
20
-14.446817349788024
42
0.99999999999999989
10
61.847020590379998
20
-12.979595948688999
0
LWPOLYLINE
5
145
100
AcDbEntity
8
0
100
AcDbPolyline
90
36
70
1
43
0.0
10
29.638321295460003
20
-26.575349600755001
10
32.549084967527897
20
-12.881283190609556
42
-0.41421356237227602
10
33.142114613320082
20
-12.496165235678605
10
38.521926417309949
20
-13.639679535421244
42
-0.029842482067379619
10
38.63689768404992
20
-13.671388233897233
10
40.807956908509773
20
-14.132861117933071
42
-0.024892862960256137
10
40.904142225809466
20
-14.158367647935657
10
41.010606175308091
20
-13.657494145661598
42
-0.41421356237158946
10
41.603635821099886
20
-13.272376190731565
10
53.830480830159885
20
-15.871272326504545
42
-0.024024055597904465
10
53.923355653279749
20
-15.895728429410818
10
56.610995628350089
20
-16.467003941647608
42
-0.41421356237391466
10
56.99611358328211
20
-17.060033587441449
10
56.892188351300057
20
-17.548963362877505
42
-0.023636216211784664
10
56.985440528590054
20
-17.56422061212476
10
61.876178532209806
20
-18.603779066433912
42
-0.029842482045297287
10
61.991149798969516
20
-18.635487764917428
10
64.651282823770089
20
-19.200916494377609
42
-0.41421356237390827
10
65.036400778702102
20
-19.79394614017145
10
62.125637106632105
20
-33.488012550314444
42
-0.41421356237227736
10
61.532607460839927
20
-33.873130505245399
10
56.152795656859915
20
-32.729616205503433
42
-0.029842482057787639
10
56.037824390100113
20
-32.697907507025697
10
53.377691365299917
20
-32.132478777563392
42
-0.41421356237390961
10
52.99257341036791
20
-31.539449131769555
10
53.304410333009891
20
-30.07237175661194
42
-0.023636213515103088
10
53.211158166539477
20
-30.057114508614468
10
41.473386957839693
20
-27.562174218273427
42
-0.024024055635398896
10
41.380512134729443
20
-27.537718115368786
10
39.181945949400131
20
-27.07039844630539
42
-0.024892862967411514
10
39.08576063210019
20
-27.044891916301417
10
38.771384991732745
20
-28.523913019299453
42
-0.41421356237407242
10
38.178355345939913
20
-28.909030974233399
10
32.798543541949655
20
-27.765516674490684
42
-0.029842482027417336
10
32.683572275189135
20
-27.733807976010553
10
30.023439250390361
20
-27.168379246546287
42
-0.41421356237391149
0
LWPOLYLINE
5
146
100
AcDbEntity
8
0
100
AcDbPolyline
90
8
70
1
43
0.0
10
90.234672585179993
20
-22.588257819323001
10
87.531820603972108
20
-35.304176628746447
42
-0.41421356237228846
10
86.938790958179908
20
-35.689294583677395
10
74.222872148759919
20
-32.986442602469388
42
-0.41421356237391216
10
73.837754193827891
20
-32.393412956675554
10
76.540606175037894
20
-19.677494147252553
42
-0.41421356237228008
10
77.133635820830079
20
-19.292376192321605
10
89.849554630249628
20
-21.995228173531718
42
-0.4142135623739151
0
LWPOLYLINE
5
147
100
AcDbEntity
8
0
100
AcDbPolyline
90
8
70
1
43
0.0
10
29.523537202880004
20
-30.696104686361998
10
26.820685221672107
20
-43.412023495785448
42
-0.41421356237227935
10
26.227655575879915
20
-43.797141450716396
10
13.511736766459917
20
-41.094289469508411
42
-0.41421356237390977
10
13.126618811527893
20
-40.501259823714555
10
15.829470792737897
20
-27.785341014291554
42
-0.4142135623722778
10
16.422500438530086
20
-27.400223059360606
10
29.138419247949638
20
-30.103075040570708
42
-0.41421356237391044
0
LWPOLYLINE
5
148
100
AcDbEntity
8
0
100
AcDbPolyline
90
8
70
1
43
0.0
10
35.056212232329997
20
-31.360940770277001
10
47.772131041750079
20
-34.063792751484613
42
-0.4142135623739116
10
48.157248996682107
20
-34.656822397278447
10
45.454397015472104
20
-47.372741206700447
42
-0.41421356237227369
10
44.861367369679925
20
-47.757859161631401
10
32.145448560259922
20
-45.055007180423409
42
-0.41421356237391105
10
31.760330605327894
20
-44.461977534629554
10
34.463182586538288
20
-31.746058725207639
42
-0.41421356237227602
0
LWPOLYLINE
5
149
100
AcDbEntity
8
0
100
AcDbPolyline
90
8
70
1
43
0.0
10
31.577655574950004
20
-64.407141450956004
10
18.861736765529919
20
-61.70428946974841
42
-0.41421356237390849
10
18.476618810597895
20
-61.111259823954562
10
21.179470791807894
20
-48.395341014532562
42
-0.41421356237227935
10
21.772500437600087
20
-48.010223059601607
10
34.488419247020083
20
-50.713075040809599
42
-0.41421356237391416
10
34.873537201952104
20
-51.306104686603447
10
32.170685220741724
20
-64.022023496025383
42
-0.41421356237227136
0
LWPOLYLINE
5
150
100
AcDbEntity
8
0
100
AcDbPolyline
90
8
70
1
43
0.0
10
63.49507916348
20
-51.718576872545007
10
50.779160354059911
20
-49.015724891337406
42
-0.41421356237392176
10
50.394042399127898
20
-48.422695245543544
10
53.096894380337901
20
-35.70677643612256
42
-0.41421356237227985
10
53.689924026130093
20
-35.321658481191605
10
66.405842835550089
20
-38.024510462399611
42
-0.41421356237390705
10
66.790960790482103
20
-38.617540108193452
10
64.088108809271716
20
-51.333458917614372
42
-0.41421356237227441
0
LWPOLYLINE
5
151
100
AcDbEntity
8
0
100
AcDbPolyline
90
8
70
1
43
0.0
10
69.027754192937905
20
-52.383412956455558
42
0.41421356237390938
10
69.412872147869919
20
-52.976442602249406
10
82.128790957280131
20
-55.67929458345445
42
0.4142135623721574
10
82.721820603070014
20
-55.294176628522997
10
85.424672584272528
20
-42.578257819107407
42
0.41421356237269025
10
85.039554629340003
20
-41.985228173316003
10
72.323635819939454
20
-39.282376192112601
42
0.41421356237788359
10
71.730606174139993
20
-39.667494147041999
0
LWPOLYLINE
5
152
100
AcDbEntity
8
0
100
AcDbPolyline
90
8
70
1
43
0.0
10
40.406212231400076
20
-51.970940770520606
42
0.41421356237227563
10
39.813182585607898
20
-52.356058725451561
10
37.110330604407892
20
-65.071977534864558
42
0.41421356237390849
10
37.495448559339998
20
-65.665007180657994
10
50.211367368759916
20
-68.367859161866406
42
0.4142135623722788
10
50.804397014549998
20
-67.982741206935003
10
53.507248995752541
20
-55.266822397520414
42
0.41421356237268808
10
53.122131040820008
20
-54.67379275172901
0
LWPOLYLINE
5
153
100
AcDbEntity
8
0
100
AcDbPolyline
90
4
70
1
43
0.0
10
116.92021719300001
20
-20.031837694834
42
0.99999999999999989
10
116.92021719300001
20
-21.531837694834003
10
145.92021719300001
20
-21.531837694834003
42
0.99999999999999989
10
145.92021719300001
20
-20.031837694834
0
LWPOLYLINE
5
154
100
AcDbEntity
8
0
100
AcDbPolyline
90
8
70
1
43
0.0
10
142.31621338900001
20
-36.990835390706003
42
0.41421356235962231
10
142.81621338900004
20
-36.490835390729004
10
142.81621338960002
20
-23.490835390726001
42
0.41421356238598245
10
142.31621338959999
20
-22.990835390704
10
129.31621338959999
20
-22.990835390123003
42
0.41421356235962231
10
128.81621338959999
20
-23.490835390099999
10
128.81621338900001
20
-36.490835390100997
42
0.41421356238598761
10
129.31621338900001
20
-36.990835390123003
0
LWPOLYLINE
5
155
100
AcDbEntity
8
0
100
AcDbPolyline
90
8
70
1
43
0.0
10
113.23821338819999
20
-54.54083509117001
42
0.41421356238598245
10
113.73821338820001
20
-55.040835091192008
10
119.73821338809999
20
-55.040835091463009
42
0.41421356236021284
10
120.23821338810001
20
-54.540835091485
10
120.23821338880001
20
-40.540835091482997
42
0.41421356238598245
10
119.73821338880001
20
-40.040835091460998
10
113.73821338889998
20
-40.040835091189997
42
0.41421356236019724
10
113.23821338889999
20
-40.540835091167999
0
LWPOLYLINE
5
156
100
AcDbEntity
8
0
100
AcDbPolyline
90
8
70
1
43
0.0
10
104.22621338810002
20
-56.040835388996008
10
91.226213388220003
20
-56.040835388413015
42
-0.41421356237485357
10
90.726213388239998
20
-55.540835388390008
10
90.72621338882999
20
-42.540835388388999
42
-0.41421356237133128
10
91.226213388849985
20
-42.040835388411999
10
104.22621338870002
20
-42.040835388995994
42
-0.41421356238657037
10
104.72621338870002
20
-42.540835389019009
10
104.72621338810001
20
-55.540835389019001
42
-0.41421356235962492
0
LWPOLYLINE
5
157
100
AcDbEntity
8
0
100
AcDbPolyline
90
8
70
1
43
0.0
10
137.6142133889
20
-40.040835092263009
42
0.4142135623596197
10
137.1142133889
20
-40.540835092240002
10
137.1142133882
20
-54.540835092240002
42
0.41421356238657037
10
137.6142133882
20
-55.040835092263009
10
143.61421338820003
20
-55.040835092530997
42
0.4142135623596197
10
144.1142133882
20
-54.540835092554005
10
144.1142133889
20
-40.540835092553998
42
0.41421356238657037
10
143.6142133889
20
-40.040835092530997
0
LWPOLYLINE
5
158
100
AcDbEntity
8
0
100
AcDbPolyline
90
8
70
1
43
0.0
10
135.67621338870001
20
-42.540835390407999
10
135.6762133881
20
-55.540835390409001
42
-0.41421356236020762
10
135.1762133881
20
-56.040835390387002
10
122.17621338820001
20
-56.040835389803014
42
-0.41421356238657037
10
121.6762133882
20
-55.54083538978
10
121.67621338879999
20
-42.540835389779005
42
-0.41421356235962492
10
122.17621338880001
20
-42.040835389801998
10
135.17621338870001
20
-42.040835390384991
42
-0.41421356238657037
0
LWPOLYLINE
5
159
100
AcDbEntity
8
0
100
AcDbPolyline
90
8
70
1
43
0.0
10
19.176618809720001
20
-80.741259823986994
10
21.87947079092789
20
-68.025341014563566
42
-0.41421356237228951
10
22.47250043672009
20
-67.640223059632604
10
35.188419246140093
20
-70.343075040840603
42
-0.41421356237390744
10
35.573537201072106
20
-70.936104686634437
10
32.870685219862111
20
-83.652023496057467
42
-0.41421356237226803
10
32.277655574069925
20
-84.0371414509884
10
19.561736764650362
20
-81.334289469778298
42
-0.4142135623739171
0
LWPOLYLINE
5
160
100
AcDbEntity
8
0
100
AcDbPolyline
90
8
70
1
43
0.0
10
68.845079162559998
20
-72.328576872785007
10
56.129160353129919
20
-69.625724891575402
42
-0.41421356237391266
10
55.744042398197905
20
-69.032695245781554
10
58.446894379407901
20
-56.316776436361558
42
-0.41421356237227985
10
59.039924025200094
20
-55.931658481430603
10
71.755842834630087
20
-58.634510462640613
42
-0.41421356237390139
10
72.140960789562115
20
-59.227540108434447
10
69.438108808351714
20
-71.943458917854372
42
-0.41421356237227946
0
LWPOLYLINE
5
161
100
AcDbEntity
8
0
100
AcDbPolyline
90
8
70
1
43
0.0
10
77.673635819010002
20
-59.892376192347001
10
90.389554628430091
20
-62.595228173554617
42
-0.4142135623739025
10
90.774672583362104
20
-63.188257819348451
10
88.071820602152115
20
-75.904176628770458
42
-0.41421356237227985
10
87.478790956359916
20
-76.289294583701405
10
74.762872146939912
20
-73.586442602493392
42
-0.41421356237390544
10
74.377754192007913
20
-72.993412956699558
10
77.080606173218285
20
-60.277494147277643
42
-0.41421356237227946
0
LWPOLYLINE
5
162
100
AcDbEntity
8
0
100
AcDbPolyline
90
8
70
1
43
0.0
10
54.207248994862539
20
-74.896822397551418
42
0.41421356237269097
10
53.822131039930085
20
-74.303792751759616
10
41.106212230520086
20
-71.600940770553606
42
0.41421356237227985
10
40.513182584729996
20
-71.986058725484995
10
37.810330603527895
20
-84.701977534895562
42
0.41421356237391366
10
38.195448558460001
20
-85.295007180689012
10
50.911367367870113
20
-87.997859161894439
42
0.41421356237158635
10
51.504397013660004
20
-87.612741206964003
0
LWPOLYLINE
5
163
100
AcDbEntity
8
0
100
AcDbPolyline
90
8
70
1
43
0.0
10
59.739924024320089
20
-75.561658481467603
42
0.4142135623722869
10
59.146894378527897
20
-75.946776436398565
10
56.444042397327898
20
-88.662695245810554
42
0.41421356237391671
10
56.829160352260004
20
-89.255724891604004
10
69.545079161680121
20
-91.958576872811449
42
0.41421356237158236
10
70.138108807470005
20
-91.573458917880998
10
72.840960788672533
20
-78.857540108467404
42
0.41421356237269319
10
72.455842833739993
20
-78.264510462676
0
LWPOLYLINE
5
164
100
AcDbEntity
8
0
100
AcDbPolyline
90
8
70
1
43
0.0
10
18.997655573319513
20
-100.68714145037232
42
0.41421356237309015
10
19.590685219112309
20
-100.30202349544049
10
22.293537200312535
20
-87.586104686038425
42
0.41421356237270135
10
21.908419245380003
20
-86.993075040247007
10
9.1925004359860409
20
-84.290223059042816
42
0.41421356237310031
10
8.5994707901929992
20
-84.67534101397402
10
5.8966188089878058
20
-97.391259823381972
42
0.41421356237308676
10
6.2817367639190014
20
-97.984289469174996
0
LWPOLYLINE
5
165
100
AcDbEntity
8
0
100
AcDbPolyline
90
8
70
1
43
0.0
10
40.927248994129997
20
-91.546822396955008
10
38.224397012922317
20
-104.26274120637049
42
-0.4142135623730957
10
37.631367367129506
20
-104.64785916130232
10
24.915448557699513
20
-101.94500718009232
42
-0.41421356237309681
10
24.530330602767691
20
-101.35197753429951
10
27.233182583977907
20
-88.63605872488256
42
-0.41421356237227225
10
27.826212229770082
20
-88.250940769951626
10
40.542131039199688
20
-90.953792751162496
42
-0.41421356237448348
0
LWPOLYLINE
5
166
100
AcDbEntity
8
0
100
AcDbPolyline
90
8
70
1
43
0.0
10
56.265079160930007
20
-108.60857687220999
10
43.549160351509506
20
-105.90572489100232
42
-0.41421356237309476
10
43.164042396577699
20
-105.31269524520951
10
45.866894377787908
20
-92.596776435799555
42
-0.41421356237227591
10
46.459924023580086
20
-92.211658480868621
10
59.17584283300009
20
-94.914510462076606
42
-0.41421356237391671
10
59.560960787932103
20
-95.507540107870454
10
56.858108806719997
20
-108.22345891728
42
-0.41421356237309614
0
LWPOLYLINE
5
167
100
AcDbEntity
8
0
100
AcDbPolyline
90
8
70
1
43
0.0
10
65.09363581738009
20
-96.172376191789624
42
0.41421356237229306
10
64.50060617158789
20
-96.557494146720572
10
61.797754190387259
20
-109.27341295613155
42
0.41421356237187634
10
62.182872145320005
20
-109.86644260192001
10
74.898790954731552
20
-112.56929458312274
42
0.41421356236613582
10
75.491820600520015
20
-112.18417662820002
10
78.194672581722116
20
-99.468257818789439
42
0.41421356237390039
10
77.809554626790003
20
-98.875228172996003
0
LWPOLYLINE
5
168
100
AcDbEntity
8
0
100
AcDbPolyline
90
20
70
1
43
0.0
10
51.123735791961487
20
-111.53970100532304
42
0.99999999999999989
10
51.331647630130988
20
-110.56155271157537
10
43.995540548990498
20
-109.00221501401768
42
0.41421351703845921
10
43.402510919290009
20
-109.38733289325
10
42.862431921227532
20
-111.92820287445947
42
-0.051026761241069182
10
42.756394132146227
20
-112.25763869435214
42
-1.0000027712092083
10
42.161142063164846
20
-111.99653531566213
42
1.2279656513206278
10
40.149596931428242
20
-111.56896890414826
42
-1.0000027363556279
10
39.499606803545213
20
-111.56538649480996
42
-0.051026660692077001
10
39.536730078760002
20
-111.22130312553
10
40.076804798634342
20
-108.68044956835881
42
0.41421352088839125
10
39.691686828990001
20
-108.08741999183
10
32.355579754290488
20
-106.52808229563769
42
0.99999999999999989
10
32.147668063429997
20
-107.50622989636
10
38.8968869375
20
-108.94082065451002
42
-0.41421356237310547
10
38.973910528479998
20
-109.05942658367002
10
38.558582478044471
20
-111.01339143467095
42
0.99999999999999989
10
43.840579521949998
20
-112.13611456532
10
44.255910948782038
20
-110.18213382967042
42
-0.41421356234448103
10
44.37451687794001
20
-110.10511023868
0
LWPOLYLINE
5
169
100
AcDbEntity
8
0
100
AcDbPolyline
90
4
70
1
43
0.0
10
33.065199999999997
20
-116.93037121981001
42
0.99999999999999989
10
33.065199999999997
20
-118.43037121981
10
62.065200000000004
20
-118.43037121981
42
0.99999999999999989
10
62.065200000000004
20
-116.93037121981
0
LWPOLYLINE
5
170
100
AcDbEntity
8
0
100
AcDbPolyline
90
8
70
1
43
0.0
10
110.07621338790001
20
-61.590835389257997
10
110.07621338730002
20
-74.590835389259993
42
-0.41421356235962492
10
109.5762133873
20
-75.090835389237
10
96.576213387370018
20
-75.090835388654
42
-0.41421356237485357
10
96.076213387389998
20
-74.590835388631007
10
96.076213387980005
20
-61.59083538862901
42
-0.41421356237133128
10
96.576213387999999
20
-61.090835388652003
10
109.57621338789998
20
-61.090835389234996
42
-0.41421356238656515
0
LWPOLYLINE
5
171
100
AcDbEntity
8
0
100
AcDbPolyline
90
8
70
1
43
0.0
10
91.47467258247255
20
-82.81825781938241
42
0.41421356237269097
10
91.089554627540096
20
-82.225228173590608
10
78.373635818120079
20
-79.522376192382595
42
0.41421356237227985
10
77.780606172329996
20
-79.907494147313997
10
75.077754191127895
20
-92.623412956726554
42
0.41421356237391049
10
75.462872146059993
20
-93.216442602520004
10
88.17879095548011
20
-95.919294583727449
42
0.4142135623715853
10
88.771820601269994
20
-95.534176628797013
0
LWPOLYLINE
5
172
100
AcDbEntity
8
0
100
AcDbPolyline
90
8
70
1
43
0.0
10
97.276213387140018
20
-80.140835388685019
10
110.27621338700001
20
-80.140835389267991
42
-0.41421356238657037
10
110.77621338700001
20
-80.640835389290999
10
110.77621338640002
20
-93.640835389290999
42
-0.41421356235963014
10
110.27621338640002
20
-94.14083538926802
10
97.276213386509994
20
-94.140835388683996
42
-0.41421356237483276
10
96.776213386530003
20
-93.640835388661003
10
96.776213387120009
20
-80.640835388661998
42
-0.41421356237134688
0
LWPOLYLINE
5
173
100
AcDbEntity
8
0
100
AcDbPolyline
90
8
70
1
43
0.0
10
122.77371338790002
20
-61.090835390048007
42
0.4142135623596197
10
122.2737133879
20
-61.590835390025006
10
122.27371338730001
20
-74.590834675924
42
0.41421314407652332
10
122.7737126732
20
-75.090834675945999
10
140.53621267290001
20
-75.090860044989483
42
0.4142139806639113
10
141.03621338700003
20
-74.590860045023007
10
141.03621338790003
20
-61.590835390652003
42
0.41421356239242874
10
140.53621338790003
20
-61.090835390618999
0
LWPOLYLINE
5
174
100
AcDbEntity
8
0
100
AcDbPolyline
90
8
70
1
43
0.0
10
166.43621338780002
20
-63.730835391789
42
0.41421356238656515
10
165.9362133878
20
-63.230835391766007
10
152.9362133878
20
-63.230835391183007
42
0.4142135623596197
10
152.4362133878
20
-63.730835391159999
10
152.43621338720001
20
-76.730835391159999
42
0.41421356238657558
10
152.93621338720001
20
-77.230835391183007
10
165.93621338720001
20
-77.230835391766007
42
0.41421356235962492
10
166.43621338720004
20
-76.730835391789014
0
LWPOLYLINE
5
175
100
AcDbEntity
8
0
100
AcDbPolyline
90
8
70
1
43
0.0
10
134.5862133871
20
-80.640835390358006
42
0.41421356238598761
10
134.0862133871
20
-80.140835390335994
10
121.08621338700002
20
-80.140835389754002
42
0.41421356235960932
10
120.586213387
20
-80.640835389730995
10
120.5862133864
20
-93.64083538973
42
0.41421356238597723
10
121.0862133864
20
-94.140835389751999
10
134.08621338649999
20
-94.140835390335994
42
0.41421356235960932
10
134.58621338649999
20
-93.640835390359015
0
LWPOLYLINE
5
176
100
AcDbEntity
8
0
100
AcDbPolyline
90
8
70
1
43
0.0
10
148.86621338699999
20
-82.280835390999997
10
161.86621338689997
20
-82.280835391582997
42
-0.41421356238657037
10
162.3662133869
20
-82.780835391606018
10
162.36621338630002
20
-95.780835391606004
42
-0.4142135623596197
10
161.86621338630002
20
-96.280835391582997
10
148.86621338640001
20
-96.280835391000011
42
-0.41421356238655993
10
148.36621338640001
20
-95.780835390977018
10
148.36621338699999
20
-82.780835390977003
42
-0.4142135623596197
0
LWPOLYLINE
5
177
100
AcDbEntity
8
0
100
AcDbPolyline
90
8
70
1
43
0.0
10
83.496213385580006
20
-114.83083538805002
42
0.41421356237309503
10
83.996213385560011
20
-115.33083538807003
10
96.996213385559997
20
-115.33083538866002
42
0.41421356237310542
10
97.496213385580006
20
-114.83083538868001
10
97.496213386170012
20
-101.83083538868001
42
0.4142135623730846
10
96.996213386190021
20
-101.33083538866002
10
83.996213386190007
20
-101.33083538807
42
0.41421356237309503
10
83.496213386169998
20
-101.83083538805001
0
LWPOLYLINE
5
178
100
AcDbEntity
8
0
100
AcDbPolyline
90
8
70
1
43
0.0
10
116.13621338620001
20
-99.690835389531003
42
0.41421356238657037
10
115.63621338620001
20
-99.190835389507996
10
102.6362133862
20
-99.190835388924995
42
0.41421356235963014
10
102.13621338620001
20
-99.690835388902016
10
102.1362133856
20
-112.69083538888999
42
0.41421356238482221
10
102.6362133856
20
-113.19083538891
10
115.6362133856
20
-113.19083538949999
42
0.41421356236136786
10
116.13621338560002
20
-112.69083538952002
0
LWPOLYLINE
5
179
100
AcDbEntity
8
0
100
AcDbPolyline
90
8
70
1
43
0.0
10
121.6862133862
20
-99.190835389778016
10
134.6862133862
20
-99.190835390364001
42
-0.41421356238597723
10
135.1862133862
20
-99.690835390385999
10
135.18621338560001
20
-112.69083539038
42
-0.41421356236137824
10
134.68621338560001
20
-113.19083539036001
10
121.68621338560001
20
-113.19083538977
42
-0.41421356238480139
10
121.18621338560001
20
-112.69083538975002
10
121.18621338620001
20
-99.690835389756018
42
-0.41421356236021284
0
LWPOLYLINE
5
180
100
AcDbEntity
8
0
100
AcDbPolyline
90
4
70
1
43
0.0
10
116.92021719300001
20
-116.93037121981001
42
0.99999999999999989
10
116.92021719300001
20
-118.43037121981
10
145.92021719300001
20
-118.43037121981
42
0.99999999999999989
10
145.92021719300001
20
-116.93037121981
0
LWPOLYLINE
5
181
100
AcDbEntity
8
0
100
AcDbPolyline
90
8
70
1
43
0.0
10
158.20621338609999
20
-101.83083539141002
42
0.41421356238482221
10
157.70621338609999
20
-101.33083539139
10
144.70621338609999
20
-101.33083539080002
42
0.41421356236136786
10
144.20621338609999
20
-101.83083539078
10
144.20621338550001
20
-114.83083539078001
42
0.41421356238481177
10
144.70621338550001
20
-115.33083539080002
10
157.70621338550001
20
-115.33083539139001
42
0.41421356236137824
10
158.20621338550001
20
-114.83083539141001
0
ENDSEC
0
SECTION
2
OBJECTS
0
DICTIONARY
5
C
100
AcDbDictionary
3
ACAD_GROUP
350
D
3
ACAD_MLINESTYLE
350
17
0
DICTIONARY
5
D
100
AcDbDictionary
0
DICTIONARY
5
1A
330
C
100
AcDbDictionary
0
DICTIONARY
5
17
100
AcDbDictionary
0
ENDSEC
0
EOF
